<svg xmlns="http://www.w3.org/2000/svg" viewBox="0 0 45 45">
  <defs>
    <style>
      .cls-1 {
        fill: #fff;
      }
    </style>
  </defs>
  <title>categoriesIcon</title>
  <g id="Camada_1" data-name="Camada 1">
    <g>
      <path class="cls-1" d="M20.333,33.673c.00012,2.42494.00392,4.8499-.00146,7.27482-.00275,1.23712-.30836,1.53073-1.57058,1.543-2.6405.0256-5.2731.06728-7.79815-.94184A13.17059,13.17059,0,0,1,2.51256,29.26478c-.00534-.95867-.0025-1.9174-.00027-2.8761.00337-1.44817.25631-1.69549,1.75594-1.69642q5.61939-.00347,11.23877-.00039c1.13523.00009,2.27073-.01391,3.40561.00608,1.07477.01894,1.41454.36979,1.41781,1.44642C20.33805,28.65389,20.33285,31.16345,20.333,33.673ZM11.4122,26.71055v.00659q-2.42764,0-4.85528,0c-2.09688-.00008-2.06028.00052-2.09741,2.12543a11.13846,11.13846,0,0,0,3.36278,8.4018c2.77385,2.77429,6.25606,3.47353,10.02353,3.30049.55578-.02553.5241-.40957.52425-.78031.0017-4.11862-.00557-8.23726.00926-12.35583.002-.55472-.18842-.72-.74924-.71116C15.55791,26.73026,13.48489,26.71055,11.4122,26.71055Z"/>
      <path class="cls-1" d="M33.591,20.30637c-2.41242-.00024-4.82486.00383-7.23727-.00182-1.3743-.00322-1.67527-.29595-1.67591-1.61882q-.00352-7.275.00032-14.55006c.00071-1.34866.282-1.61768,1.65583-1.6286,2.612-.02076,5.21332-.06035,7.71282.94082a13.17689,13.17689,0,0,1,8.45,12.28459c.005.9587.00316,1.91745.00112,2.87617-.0031,1.44977-.255,1.69548-1.75483,1.69721Q37.167,20.31,33.591,20.30637Zm.00807-2.01863v.0091c2.1011,0,4.20244-.01672,6.30313.01216.50339.00692.655-.17111.64378-.63075-.01782-.73308.01-1.46733-.01134-2.20023A10.98717,10.98717,0,0,0,36.09926,6.8087C33.47105,4.7426,30.387,4.32966,27.165,4.45352c-.55524.02135-.52491.40779-.525.77934-.0013,4.11881.00589,8.23764-.00827,12.35639-.0019.55291.18649.72079.7492.71173C29.45312,18.26764,31.52624,18.28774,33.599,18.28774Z"/>
      <path class="cls-1" d="M20.33311,11.44809c-.00005,2.45307.00424,4.90615-.002,7.3592-.00285,1.13083-.33631,1.49049-1.45674,1.493Q11.42475,20.317,3.975,20.3019c-1.14371-.00232-1.4758-.33749-1.45665-1.47588a29.20348,29.20348,0,0,1,.25569-5.81647A13.45051,13.45051,0,0,1,15.64915,2.51247c1.02143-.01632,2.04333-.00813,3.065-.00394,1.31625.0054,1.61545.295,1.61776,1.58036Q20.3385,7.76848,20.33311,11.44809Zm-8.99494,6.84836v-.00468c2.04251,0,4.08665-.04639,6.12665.02463.735.02559.92542-.15679.92015-.8606-.02741-3.66391-.01266-7.32813-.01265-10.99224,0-2.01971,0-2.01934-2.01141-2.01349A11.7175,11.7175,0,0,0,7.55977,8.0115c-2.67587,2.77524-3.3341,6.1738-3.088,9.85459.03052.45647.31761.43649.65392.435C7.19647,18.29186,9.26733,18.29645,11.33817,18.29645Z"/>
      <path class="cls-1" d="M42.49708,33.63933a8.90937,8.90937,0,1,1-8.87181-8.94244A8.88918,8.88918,0,0,1,42.49708,33.63933Zm-8.925-6.91725a6.83162,6.83162,0,0,0-6.93226,6.92465,6.951,6.951,0,0,0,13.90168-.05917A6.7774,6.7774,0,0,0,33.57209,26.72208Z"/>
    </g>
  </g>
</svg>
