<svg xmlns="http://www.w3.org/2000/svg" viewBox="0 0 75 75">
  <defs>
    <style>
      .cls-1 {
        fill: #fff;
      }
    </style>
  </defs>
  <title>dailyLifeIcon</title>
  <g id="Camada_1" data-name="Camada 1">
    <g>
      <path class="cls-1" d="M66.9346,20.91692c0,2.682.01892,5.36424-.01129,8.04592A2.58228,2.58228,0,0,0,67.7706,30.995c1.5412,1.48674,3.03423,3.02336,4.54869,4.53787a4.15431,4.15431,0,0,1,.104,5.54241,3.96061,3.96061,0,0,1-5.75062.05723c-2.80551-2.7744-5.58028-5.57986-8.36993-8.3703q-9.8316-9.83433-19.66491-19.66693c-1.13221-1.13237-1.12983-1.13149-2.31526.05393Q22.38358,27.088,8.44008,41.02235A3.95733,3.95733,0,0,1,1.71448,39.481,4.33815,4.33815,0,0,1,3.13629,35.1141q7.54281-7.563,15.11086-15.10084Q25.9626,12.29827,33.65869,4.564c1.327-1.34216,2.68684-2.37111,4.729-1.98011a4.20468,4.20468,0,0,1,2.16529,1.226c2.07456,2.02948,4.09112,4.11808,6.14547,6.16843,1.73379,1.73041,3.49627,3.43207,5.23138,5.16119.52631.5245.756.36244.85353-.289.15357-1.02637-.16339-2.04614.03355-3.08906a3.11,3.11,0,0,1,3.37328-2.89517c2.33706-.017,4.67435-.01478,7.01149-.00624,2.44514.00894,3.67075,1.179,3.71561,3.66619.05043,2.796.0116,5.59369.0116,8.39064Z"/>
      <path class="cls-1" d="M27.87232,34.46524a11.08163,11.08163,0,0,1,8.9069,4.49776c.60036.80583.84269.74546,1.4348-.01132a11.01672,11.01672,0,0,1,18.18231.55636c2.71122,4.04515,2.36071,8.34376.41438,12.59914a37.10875,37.10875,0,0,1-6.76641,9.51109A88.91311,88.91311,0,0,1,38.51593,71.96411c-.51452.394-.97886.83134-1.7088.26541-6.257-4.85115-12.18861-10.029-16.67422-16.64614A19.06265,19.06265,0,0,1,16.722,47.02886C15.93152,40.23767,21.764,33.91859,27.87232,34.46524Z"/>
    </g>
  </g>
</svg>
