<svg xmlns="http://www.w3.org/2000/svg" viewBox="0 0 42 52">
  <defs>
    <style>
      .cls-1 {
        fill: #fff;
      }
    </style>
  </defs>
  <title>passwordIcon</title>
  <g id="Camada_1" data-name="Camada 1">
    <path class="cls-1" d="M21.05144,50.68664c-4.6254-.00017-9.25082.00805-13.87619-.00308a5.95265,5.95265,0,0,1-6.00867-4.85041,7.60727,7.60727,0,0,1-.15591-1.52923q-.01534-9.73631-.00195-19.47265a5.91583,5.91583,0,0,1,3.55448-5.765,7.38467,7.38467,0,0,1,3.40755-.52841c.77862.01668.73.00324.70708-.78792a24.65741,24.65741,0,0,1,.4895-7.59736A12.51652,12.51652,0,0,1,19.33111,1.412,12.38412,12.38412,0,0,1,33.19119,11.65344a25.61547,25.61547,0,0,1,.09657,5.92328c-.05469.87267-.01762.99083.84829.95888a6.39414,6.39414,0,0,1,4.93015,1.684A6.197,6.197,0,0,1,40.98172,24.837q.03141,9.85045.00115,19.701a5.91825,5.91825,0,0,1-6.22636,6.148Q27.904,50.69121,21.05144,50.68664Zm-.114-32.1385v-.00266q3.282,0,6.56392.001c.41535.0004.79417-.06278.79241-.58868a49.47775,49.47775,0,0,0-.073-5.24615,7.25844,7.25844,0,0,0-7.99175-6.33476,7.35463,7.35463,0,0,0-6.52839,7.28674c-.0113,1.29366-.0111,2.58742-.01522,3.88113-.00285.8951.10814,1.00309,1.03058,1.00327Q17.82676,18.54863,20.93747,18.54814Zm-2.30825,20.5341c0,.46376-.02837,1.131.006,1.79505a2.19913,2.19913,0,0,0,2.06626,2.24514,2.27584,2.27584,0,0,0,2.66517-2.454c.023-1.46454.01876-2.92989-.00087-4.39452a1.88405,1.88405,0,0,1,.73911-1.5818A4.59513,4.59513,0,0,0,25.7512,29.947a4.94512,4.94512,0,0,0-3.92329-3.774,4.426,4.426,0,0,0-4.72848,1.90158c-1.22817,1.70049-1.65,4.54269.37675,6.14649a3.23612,3.23612,0,0,1,1.066,2.153C18.66715,37.2111,18.5797,38.04549,18.62922,39.08224Z"/>
  </g>
</svg>
