<svg xmlns="http://www.w3.org/2000/svg" viewBox="0 0 75 75">
  <defs>
    <style>
      .cls-1 {
        fill: #fff;
      }
    </style>
  </defs>
  <title>sportsLeisuresIcon</title>
  <g id="Camada_1" data-name="Camada 1">
    <g>
      <path class="cls-1" d="M31.97574,32.79681c3.09578.62074,5.735,1.1747,8.3843,1.67542,4.16341.78688,5.0504,2.19246,3.88407,6.26652q-1.998,6.97894-4.00881,13.95422a20.3704,20.3704,0,0,1-.82861,2.52188c-.7808,1.7852-2.3817,2.63138-3.90295,2.14848a3.2846,3.2846,0,0,1-2.16369-4.09011c.66127-2.71317,1.48871-5.38588,2.24734-8.07526.22205-.78717.45406-1.57154.67744-2.35835,1.23578-4.3528,1.2335-4.34271-3.29588-5.16114-3.285-.59356-6.5649-1.21564-9.846-1.83061a5.38775,5.38775,0,0,1-4.58426-3.85212,5.13283,5.13283,0,0,1,1.73855-5.723c4.75121-3.98757,9.543-7.93732,14.48316-11.6852,2.87662-2.18236,6.31153-1.24964,8.25868,1.8356a3.41223,3.41223,0,0,1,.206.35332A21.52242,21.52242,0,0,0,54.97781,30.03271c2.77686,1.12188,3.447,2.79674,2.563,4.49542-.90309,1.73537-2.688,1.84912-5.35315.37364-1.55078-.85854-3.09205-1.7436-4.69219-2.50147a10.90626,10.90626,0,0,1-5.72323-5.2755c-.56887-1.25416-1.26132-1.29389-2.32764-.37667C37.13816,28.73207,34.72137,30.58777,31.97574,32.79681Z"/>
      <path class="cls-1" d="M27.89712,53.99863A13.31341,13.31341,0,0,1,14.31093,67.42136,13.49608,13.49608,0,1,1,27.89712,53.99863Zm-4.05615.05749a9.126,9.126,0,0,0-9.31739-9.488,9.38994,9.38994,0,0,0-.22837,18.77831A9.2169,9.2169,0,0,0,23.841,54.05612Z"/>
      <path class="cls-1" d="M60.25417,67.40532a13.4964,13.4964,0,0,1,.18174-26.99181,13.74929,13.74929,0,0,1,13.56365,13.6174A13.59874,13.59874,0,0,1,60.25417,67.40532Zm.23572-22.82843a9.37952,9.37952,0,1,0-.198,18.758,9.381,9.381,0,1,0,.198-18.758Z"/>
      <path class="cls-1" d="M52.8289,13.07747a5.55564,5.55564,0,0,1-5.5263,5.6389,5.65,5.65,0,0,1-5.51612-5.48354,5.522,5.522,0,1,1,11.04242-.15536Z"/>
    </g>
  </g>
</svg>
