<svg xmlns="http://www.w3.org/2000/svg" viewBox="0 0 75 75">
  <defs>
    <style>
      .cls-1 {
        fill: #fff;
      }
    </style>
  </defs>
  <title>transportTravelIcon</title>
  <g id="Camada_1" data-name="Camada 1">
    <g>
      <path class="cls-1" d="M48.18485,21.40731a.65124.65124,0,0,0,.95018.34069c.51382-.25521.802-.01822,1.01424.44709.11178.245.08543.69449.5453.55079a.84291.84291,0,0,0,.62712-.82568c.09907-.87881-.06-1.83192.58715-2.60751.14183-.17.15823-.45207.45894-.3574.34167.10756.199.34586.10577.557-.05152.11667-.10734.23136-.15909.34792a.9087.9087,0,0,0,.10942.9428c.22851.323.53191.2001.82669.11979.2681-.073.54506-.18937.82335.04311-.2457.31336-.79863-.00382-.82628.47877-.03581.625-.83722.86936-.7098,1.56378.01137.062-.16305.206-.27162.23589a7.35116,7.35116,0,0,1-2.42442.13044.39967.39967,0,0,1-.33387-.57246c.06874-.18382.22618-.3558.03284-.57025-.05982.04274-.17074.08541-.1704.12713.00822,1.02566-.70487,1.36923-1.49719,1.64176a.25767.25767,0,0,0-.0641.04068,5.61019,5.61019,0,0,1-3.18036,1.57483c.10309.15211.12856.23032.18115.26113a1.19981,1.19981,0,0,1,.55523,1.6749c-.30387.72374-.87216.254-1.32.28389-.44622.02981-.85441-.36071-1.32381-.18258-.60241.22862-.31978.84824-.50707,1.26706-.50478,1.12887-.45536,1.20558.42,1.80792a1.76794,1.76794,0,0,0,2.65769-.86875,1.25981,1.25981,0,0,1,.63125-.733c.45409-.21689.93636-.37308,1.08-.9674a.33869.33869,0,0,1,.507-.18116,1.11536,1.11536,0,0,0,1.13713-.19469c.33062-.20167.674-.2927.95.0643A16.49973,16.49973,0,0,0,51.11771,29.23c.2951.29836.75691.45474.78264.97381q-.08193.13986-.16337.28017c.12312.01736.23491.00877.28728-.13969.35169-.9172.30673-1.13626-.48232-1.57274a2.13881,2.13881,0,0,1-1.07695-1.5929c.94935.7619,2.40114.8701,2.79247,2.31934a.75483.75483,0,0,0,.42927.40367c.27285.106.72811.3426.7353-.206.00658-.50171.29587-.61955.6172-.687.385-.08087.56287.18543.66606.55574.16879.60579.45774,1.19238,1.13135,1.29859a4.44674,4.44674,0,0,0,1.74766-.01818c.87519-.22367.859-.29416,1.077.6251a4.56288,4.56288,0,0,1,.13562.67451c.05942.73442-.22847,1.18451-.94308,1.2154-1.37315.05931-2.774.29649-4.087-.39542-.45013-.23721-.79237-.01725-.98514.409-.41625.92042-.73283,1.08981-1.53824.51855a9.766,9.766,0,0,0-2.29122-1.14792c-.32863-.12275-.42152-.23845-.21631-.606a.75525.75525,0,0,0-.66839-1.16438,21.43539,21.43539,0,0,0-4.43951.47547,3.60934,3.60934,0,0,1-1.262.13988,2.84021,2.84021,0,0,0-2.53,1.80083,1.52488,1.52488,0,0,1-1.20121,1.23336c-1.585.44675-2.02477,1.956-2.87953,3.08a.36619.36619,0,0,0-.02149.29664,4.56959,4.56959,0,0,1-.32505,2.9871A1.815,1.815,0,0,0,36.38,42.40557a14.72892,14.72892,0,0,1,.666,2.02878,4.20749,4.20749,0,0,0,3.30867,2.995c1.65527.2753,3.30109.78376,4.91084-.2579a.7765.7765,0,0,1,1.19639.42481c.23049.67062.64027.728,1.24405.61348.89322-.16946,1.36354.26252,1.192,1.12673-.22958,1.15666-.51991,2.27717.85774,2.94572.13335.06467.18934.294.27973.44787a7.53439,7.53439,0,0,1,.72567,2.087,1.03327,1.03327,0,0,1-.22427,1.10008,1.97417,1.97417,0,0,0-.07375,2.701c.3691.52672,1.01248.97043.91424,1.70092a2.08393,2.08393,0,0,0,.52477,1.61356,2.63329,2.63329,0,0,1,.624,1.04039c.14876.84637.74934.92912,1.36455.79553a19.514,19.514,0,0,0,2.07463-.41863,5.66382,5.66382,0,0,0,3.147-2.502,1.83991,1.83991,0,0,1,.67545-.77881,1.49626,1.49626,0,0,0,.885-1.31959,1.66642,1.66642,0,0,1,.768-1.26343c.408-.30215.80368-.62487,1.23125-.89575a1.85168,1.85168,0,0,0,.88169-1.67591,12.48892,12.48892,0,0,0-.33318-3.04305.94261.94261,0,0,1,.07407-.80625,27.94813,27.94813,0,0,1,2.6916-3.97767c1.27512-1.32657,1.58562-3.09981,1.87629-4.846.0679-.40794-.05357-.66446-.53516-.34792a5.42856,5.42856,0,0,1-1.14.59653c-.50949.181-1.13779.45665-1.45871-.22836a3.16267,3.16267,0,0,0-1.16867-1.26137,3.81828,3.81828,0,0,1-1.69567-1.99763,6.81083,6.81083,0,0,0-.95366-1.90431c-.39724-.59289-.76884-1.20547-1.19816-1.77343-.22341-.29554-.09885-.43906.1-.627.30022-.28377.32662.09186.41285.19668a15.72625,15.72625,0,0,0,1.07464,1.38479c1.01611.98266,1.36933,2.48641,2.59141,3.30736.17636.11851.22.44855.31071.68632.13639.3576.25862.72074.38955,1.08051.15343.42156.40946.55353.81842.31193a12.74113,12.74113,0,0,0,3.27819-3.28025,4.02467,4.02467,0,0,0,.77952-2.25538c.022-.40278.19921-.95926-.26348-1.08542-.51533-.14056-1.07494-.6891-1.66765-.06588a.79589.79589,0,0,1-1.35165-.08334c-.34317-.44225-.68513-.88709-.99791-1.35127-.18539-.27515-.58152-.62128-.19-.921.35851-.27444.51034.26772.76372.42939.12666.08083.222.21063.34514.29862.48507.34657.94773.86171,1.57888.23158a.22929.22929,0,0,1,.34314.00522c.69957.82039,1.42456.26885,2.04143-.05362.81265-.42481,1.56594-.83591,2.46621-.32276.0383-.11739.07439-.1683.06421-.20666-.05892-.22195-.119-.44453-.19632-.66037A26.32687,26.32687,0,0,0,58.41831,16.86329c-.35212-.16695-.96764-.94591-1.23962.15927-.0089.03618-.07886.0601-.12349.08368a5.64213,5.64213,0,0,0-1.64426,1.69582c-.18017.22649-.43238.4773-.76389.18438-.30434-.26889-.07945-.39126.12517-.58532.37066-.35152.1053-.547-.24542-.59514a5.31458,5.31458,0,0,1-1.324-.30972,1.841,1.841,0,0,0-2.45182.59128c-.689.83532-1.20755,1.81625-2.30688,2.24815A.73067.73067,0,0,0,48.18485,21.40731Zm7.81653,6.09891a5.37862,5.37862,0,0,1,.224-.72527c.34156-.73859.69359-.76487,1.17694-.09951.11954.16455.2281.37919.45857.30575.23179-.0739.123-.26814.09111-.44814-.08738-.4932.33725-.64958.6418-.69022.26182-.03494.247.36348.23686.57242-.01239.25584.05134.39618.29144.44105.44489.0832.72338.45834,1.11356.63908.257.11908.523.27785.44909.62409-.06949.32535-.36852.29071-.61649.3186-.15.01687-.29866.04649-.52369.08248-.25323-.06279-.57738-.12113-.88652-.22517a1.16,1.16,0,0,0-1.20995.17584,1.016,1.016,0,0,1-1.20168.1085C55.78378,28.33771,55.87959,27.91424,56.00138,27.50622Z"/>
      <path class="cls-1" d="M73.994,41.22638a17.48168,17.48168,0,0,0-.49934-4.3281,4.07885,4.07885,0,0,0-.00383.918,24.12679,24.12679,0,0,1-.26057,6.72944C71.39772,54.65707,65.7748,61.8131,56.488,65.87557a24.43332,24.43332,0,0,1-18.637.878,28.71587,28.71587,0,0,1-18.697-27.92926,21.19036,21.19036,0,0,1,1.73459-8.04764c.22285-.4929.41123-.583.8866-.29007a6.56394,6.56394,0,0,0,3.24345.94816A10.13607,10.13607,0,0,0,35.05,24.15357,31.63834,31.63834,0,0,0,36.24928,16.132a9.869,9.869,0,0,1,6.23924-9.01763,18.99022,18.99022,0,0,1,4.76055-1.404,1.53,1.53,0,0,0-.86976-.39295A28.28979,28.28979,0,0,0,35.0948,4.84427c-7.19817.95551-13.00319,4.20817-17.14392,10.36178a10.089,10.089,0,0,0-1.85961,7.38259,10.64907,10.64907,0,0,0,2.37665,5.47321c.36972.43284.58625.43959.81017-.14986a38.497,38.497,0,0,1,2.686-5.41082,40.76739,40.76739,0,0,1,9.93555-11.87809,1.35242,1.35242,0,0,1,1.1-.46388,61.32219,61.32219,0,0,0-9.91842,12.25435,49.59156,49.59156,0,0,0-5.72681,14.54981C15.34287,32.40705,12.6985,28.43665,8.194,25.82442a1.40222,1.40222,0,0,1,1.12861.30421,18.27082,18.27082,0,0,1,6.062,5.9089c.21543.31111.327.91078.76518.81409.438-.09661.59981-.65085.75749-1.08624a2.20314,2.20314,0,0,0,.12156-.52053A5.63342,5.63342,0,0,0,14.768,25.802,16.54944,16.54944,0,0,0,4.2873,22.38284,19.46856,19.46856,0,0,0,1,22.61169c.0368.09752.03886.13239.05586.14322.106.06749.21334.13351.32395.19293A11.2,11.2,0,0,1,7.374,30.4576a18.18924,18.18924,0,0,0,.52791,1.76015c.74927,2.16376,4.4244,4.35758,6.91191,2.31428.35824-.29427.52-.132.66907.20759.31792.72446.6556,1.44009.96769,2.16706a7.47449,7.47449,0,0,1,.63143,3.80119,20.60984,20.60984,0,0,0,.27643,5.27657A28.46088,28.46088,0,0,0,73.994,41.22638Z"/>
      <path class="cls-1" d="M30.0996,51.66288a.972.972,0,0,0,.05008-1.02408,12.93991,12.93991,0,0,0-2.74938-3.23819c-.65838-.55187-1.1939-1.2515-1.80792-1.86071-.45129-.44776-.08816-1.03656-.318-1.52857a8.97207,8.97207,0,0,0-1.48559-2.39511,5.53581,5.53581,0,0,1-1.24693-2.73389,5.67176,5.67176,0,0,1-.05628-.9852,1.014,1.014,0,0,0-.79319-.90362c-.44028-.07675-.28649.49211-.3193.77352A26.57418,26.57418,0,0,0,27.215,58.17082c.131.1641.22184.40593.49891.41421.17765-.401-.50381-.84573.02379-1.1826.36937-.23586.67852-.63488,1.18613-.5993.32448.02276.36956-.1857.37407-.44116a5.16366,5.16366,0,0,0-.09231-1.98008,1.925,1.925,0,0,1,.46681-2.08679A5.177,5.177,0,0,0,30.0996,51.66288Z"/>
      <path class="cls-1" d="M41.28331,15.69708a1.27948,1.27948,0,0,1-.84744.45616c-1.10686.1773-1.67879,1.0378-2.36208,1.77062-.31223.33487-.20117.67781-.08726,1.03641.20829.024.32083-.14288.473-.2224a9.85771,9.85771,0,0,1,2.87462-1.20573c.83638-.14966,1.69008-.09376,2.512-.3222a11.22076,11.22076,0,0,0,4.5783-2.58126,1.30558,1.30558,0,0,0-.93661-.17583,26.20311,26.20311,0,0,0-4.59819.41139C42.28267,14.98062,41.65882,15.03037,41.28331,15.69708Z"/>
      <path class="cls-1" d="M45.47,21.63267c-.42167-.025-.58218.40851-.60228.82857a.75653.75653,0,0,1-.06738.20639c.31836.04735.54044.46722.47842.52065-.44813.38586-.28957.955-.52074,1.459a2.47788,2.47788,0,0,1,1.205-.08717c.31342.06587.43763-.10595.57414-.349.14427-.25685-.0146-.32363-.152-.48859A1.69764,1.69764,0,0,1,45.878,22.502C45.91894,22.08988,45.89716,21.658,45.47,21.63267Z"/>
      <path class="cls-1" d="M44.79685,22.67652l.00348-.00889-.0165-.003Z"/>
      <path class="cls-1" d="M44.79632,22.67655l-.01249-.012-.00456.01208C44.78512,22.67682,44.79043,22.67637,44.79632,22.67655Z"/>
      <path class="cls-1" d="M43.27405,23.97118c1.02885.13365,1.24339-.60834,1.50522-1.29451C43.91867,22.65395,43.552,23.22007,43.27405,23.97118Z"/>
      <path class="cls-1" d="M51.69945,30.52073c.00974-.00738.01967-.01409.02916-.02242L51.71,30.4799Z"/>
      <path class="cls-1" d="M51.69945,30.52073c-.27746.21056-.65206.06783-.96159.22893C51.47655,31.3277,51.4895,31.3355,51.69945,30.52073Z"/>
      <path class="cls-1" d="M51.72861,30.49831,51.737,30.484l-.02645-.00375Z"/>
    </g>
  </g>
</svg>
