<svg xmlns="http://www.w3.org/2000/svg" viewBox="0 0 254.17717 192.1605">
  <defs>
    <style>
      .cls-1 {
        fill: #fff;
      }

      .cls-2 {
        fill: #6052ac;
      }
    </style>
  </defs>
  <title>vocabaryLogo</title>
  <g id="Camada_1" data-name="Camada 1">
    <g>
      <g>
        <path class="cls-1" d="M254.09913,47.2365c-.45617-4.38558-2.03672-8.26318-6.43244-9.68649a19.37712,19.37712,0,0,0-8.278-.76394c-5.92441.7892-11.78411,2.12018-17.65766,3.297-1.03472.20734-1.61532-.00827-1.94418-1.0145a6.87776,6.87776,0,0,0-.60671-1.31232c-3.21482-5.5101-7.8236-9.38906-14.21419-9.40046-5.24168-.00933-10.50691,1.27507-15.7326,2.16864a2.28888,2.28888,0,0,1-2.54277-.76943C177.81915,19.77323,167.48989,11.8915,155.091,6.86012a89.522,89.522,0,0,0-48.962-5.6566C92.60527,3.40876,80.37257,8.77379,69.04023,16.28578l-.00009-.00142s-20.38932,11.782-27.15782,25.26193l.00418-.00412a95.83818,95.83818,0,0,0-10.128,18.56691,2.08615,2.08615,0,0,1-1.86131,1.43266c-4.61023.72522-9.21787,1.47225-13.8154,2.27909a47.72681,47.72681,0,0,0-5.74252,1.30144A13.73225,13.73225,0,0,0,3.474,69.62453C-.37637,74.39743-.76446,79.63164,1.03264,85.31388c1.358,4.29369,2.41246,8.6875,3.65625,13.02039C6.259,103.80394,7.9268,109.24448,9.4554,114.72619a10.51458,10.51458,0,0,1,.49039,4.20438c-.723,4.85282-1.66866,9.67316-2.551,14.50193a13.99767,13.99767,0,0,0,2.84909,11.72087c5.32691,6.40839,12.07578,10.14625,20.74553,9.02044,6.15405-.79912,12.309-1.59195,18.45734-2.43671a2.24645,2.24645,0,0,1,2.19436.83188,87.3904,87.3904,0,0,0,6.41516,6.454,84.89468,84.89468,0,0,0,26.45942,15.57629c7.14588,2.63163,14.38833,4.82737,22.01688,5.3207a152.82347,152.82347,0,0,0,26.65382-.70259,3.16388,3.16388,0,0,1,2.19531.48934c5.63548,4.82214,12.18626,8.10736,18.6763,11.47919a12.435,12.435,0,0,0,3.9809.94626c1.21812.17042,1.94361-.42851,2.16846-1.77554,1.24293-7.44686,2.57663-14.87874,3.79109-22.33a4.42328,4.42328,0,0,1,1.65839-2.94168c5.02457-4.16867,10.17572-8.20439,14.95025-12.65549,12.16737-11.34323,20.20407-25.36984,25.262-41.22415,1.1496-3.60364,1.09671-3.57851,4.79186-3.33763a24.92971,24.92971,0,0,0,14.83758-3.378c4.56686-2.75157,7.75307-6.81831,10.29458-11.486,6.47683-11.8953,10.9738-24.69983,16.65095-36.96215A16.67075,16.67075,0,0,0,254.09913,47.2365ZM72.40171,19.4768a84.14744,84.14744,0,0,1,55.2386-14.22153c14.84356,1.2465,28.68754,5.56188,40.89051,14.35254,4.11482,2.96418,7.77063,6.58826,11.59626,9.95753a14.725,14.725,0,0,1,1.66751,2.10019c-2.172,1.92161-4.75078,2.06333-6.71051.33518-5.84833-5.15719-11.9798-9.91284-19.06893-13.1888-17.8252-8.23726-36.37622-11.10427-55.59577-6.05256A82.14048,82.14048,0,0,0,69.73163,27.96588l-.38307-6.47133Q70.87758,20.48955,72.40171,19.4768Zm66.53171,4.96791a3.0061,3.0061,0,0,1-2.70623,2.3509c-4.6891.89913-9.38247,1.77613-14.06388,2.71644Q103.43625,33.27358,84.72,37.09263c-1.34874.27506-2.65544.76612-4.00149,1.06051-1.6958.37082-2.61594-.209-3.16185-1.85108a2.51406,2.51406,0,0,1,1.45186-3.46326A34.59635,34.59635,0,0,1,84.244,31.55116c8.83909-1.77554,17.6897-3.49034,26.52505-5.28532,8.10787-1.64723,16.19788-3.38794,24.30339-5.0478C137.6883,20.68238,139.45325,22.10992,138.93342,24.44471Zm-74.0433,21.4478c3.10317-.71913,6.23438-1.31336,9.36062-1.92245Q89.176,41.062,104.10631,38.1812q19.07394-3.70545,38.14785-7.41114a9.37515,9.37515,0,0,1,2.52412-.19425,2.61579,2.61579,0,0,1,2.34695,3.14234c-.49734,1.70557-1.88249,2.32215-3.55617,2.61623-5.59457.98308-11.19535,1.93479-16.7728,3.01419-14.07593,2.72407-28.13764,5.52665-42.21084,8.266-6.2023,1.20729-12.41779,2.34248-18.62917,3.49964-1.93805.36111-3.22079-.277-3.56973-1.73184C61.99988,47.7703,62.92019,46.349,64.89012,45.89251Zm-9.23368-4.11212-1.41179-2.3412c.71468.47927,1.44013.96573,2.18723,1.46673C56.1825,41.18678,55.92254,41.48008,55.65644,41.78039ZM249.23436,53.34264q-8.12174,18.13856-16.327,36.23865a25.58706,25.58706,0,0,1-7.81541,9.91721,20.08127,20.08127,0,0,1-18.72637,3.18465,19.45875,19.45875,0,0,1-3.464-1.94165c-.21645,1.1483-.35968,2.18264-.61012,3.19015-1.22178,4.91454-1.92085,10.05253-3.82056,14.6866a86.65716,86.65716,0,0,1-21.18419,30.86439,114.06072,114.06072,0,0,1-15.60944,12.57362,2.82913,2.82913,0,0,0-1.1726,1.59224c-.9119,4.54379-1.788,9.09721-2.53967,13.66985-.43586,2.65171-.67982,5.33992-.8942,8.02051-.10847,1.35666-.59527,1.899-1.8915,1.417a12.35813,12.35813,0,0,1-1.86065-.8599c-3.80673-2.19373-7.62689-4.3656-11.39009-6.63417-2.17644-1.312-4.21847-2.85322-6.39669-4.162a4.14762,4.14762,0,0,0-2.62485-.72064,87.53268,87.53268,0,0,1-21.05105,1.34127,81.01966,81.01966,0,0,1-29.98114-7.125A79.38233,79.38233,0,0,1,56.049,150.82824a9.692,9.692,0,0,1-1.80781-2.01612c-.981-1.94455-2.49914-1.84764-4.27256-1.57872-6.39853.97043-12.79211,2.03068-19.22034,2.72048-7.1491.76714-12.63345-2.67924-16.88024-8.09432-2.43357-3.103-2.44331-7.034-1.81713-10.8515.63727-3.88509,1.48887-7.73533,2.11859-11.62144a9.03013,9.03013,0,0,0-.1117-3.6571c-2.55773-9.60262-5.19663-19.18246-7.84239-28.76-.371-1.34284-.90943-2.637-1.37431-3.95225A9.6752,9.6752,0,0,1,10.5347,70.35558a13.442,13.442,0,0,1,4.59022-1.25489c6.39008-.01206,12.282-2.56383,18.4619-3.62837,6.21758-1.071,12.34653-2.68165,18.54451-3.89032,14.121-2.75384,28.26876-5.36141,42.39041-8.112,15.47614-3.01436,30.91915-6.21262,46.40623-9.16427,14.965-2.85221,29.96619-5.50138,44.95467-8.221,5.11651-.92838,10.24164-1.80548,15.36456-2.69561,5.16654-.89772,9.21073,1.1714,12.56011,4.94538a11.51014,11.51014,0,0,1,3.29337,6.70705c2.47274-.74812,4.81755-1.59467,7.19913-.24762.1672.09462.49088-.1077.7448-.155,1.3952-.25975,2.79261-.50694,4.18683-.77238,1.63753-.31179,3.28465-.5839,4.906-.96988,2.67347-.63645,5.29686-1.64789,7.99953-1.973,6.70652-.80681,8.8148,4.53467,8.07663,9.17761A13.05156,13.05156,0,0,1,249.23436,53.34264Z"/>
        <path class="cls-1" d="M71.27206,90.86172c.85787-2.08621,1.49814-4.10068,2.47261-5.933C77.739,77.4182,83.96973,73.52569,92.36818,73.606a9.46711,9.46711,0,0,1,7.924,4.06751c.66088.92091.55,1.50166-.40261,2.08411-1.95554,1.19563-3.87762,2.44821-5.81655,3.67931-2.81126-3.59007-8.0902-3.59948-11.19275.15526a15.00374,15.00374,0,0,0-3.42683,12.0756,5.0265,5.0265,0,0,0,5.82914,4.39476c2.9777-.37081,4.33348-1.33982,6.96646-4.88014,1.67378.75057,3.263,1.5469,4.91489,2.17549,1.1617.44206,1.264,1.1672.57885,1.94843-4.18532,4.77227-8.67277,8.90456-15.58742,8.81229-5.60367-.07477-9.35395-2.90247-10.57913-8.4776a13.98523,13.98523,0,0,0-.99064-3.34876c-.17131.56916-.34537,1.13751-.51352,1.70761-2.499,8.47337-9.98338,14.64758-18.392,15.17137-6.99915.436-11.97828-3.837-12.23947-10.93783C39.16434,94.72116,41.20221,87.999,47.43,83.23373a19.79625,19.79625,0,0,1,9.02143-3.85919C64.63565,78.06708,70.37952,82.43887,71.27206,90.86172Zm-8.5459,3.8142a32.77114,32.77114,0,0,0,.15944-3.27481c-.12533-3.1287-1.93743-5.16748-5.01231-5.39928a8.32528,8.32528,0,0,0-8.01062,4.30556,15.96509,15.96509,0,0,0-2.34281,9.2574c.17319,5.12239,3.81134,7.38244,8.42472,5.25715C60.15075,102.88428,61.552,99.03625,62.72616,94.67592Z"/>
        <path class="cls-1" d="M225.10433,73.77168c.39657-.92316.82072-1.94642,1.27274-2.95694q4.11764-9.205,8.24658-18.40486c.70219-1.56568,1.03833-3.64182,2.22867-4.54169,1.12058-.84716,3.15043-.41349,4.7718-.6168,1.14668-.14379,2.27927-.41011,3.74429-.68235-.37562.989-.61934,1.77427-.96247,2.51225Q238.48238,61.822,232.53345,74.55066c-2.06811,4.43718-4.23618,8.831-6.16392,13.32979-2.72838,6.36729-7.75082,9.08588-14.19,9.47437-1.74073.105-3.52571-.52721-5.28108-.869-.79786-.15534-.92192-.66372-.67048-1.44978a47.20883,47.20883,0,0,0,1.32817-4.81458c.21808-1.05662.66817-1.22916,1.64489-1.12464a26.5212,26.5212,0,0,0,5.05862.19624,5.83908,5.83908,0,0,0,4.91863-7.00082c-1.7715-6.92089-3.68833-13.80256-5.56722-20.69407a33.91144,33.91144,0,0,0-1.64739-4.70172c-.04948,2.42324-1.48666,2.32581-3.113,2.449a11.39738,11.39738,0,0,0-9.47449,8.25245c-1.2963,5.84065-2.41082,11.72487-3.45515,17.61663a2.31727,2.31727,0,0,1-2.3044,2.25327c-2.03055.27327-4.0395.72085-6.21619,1.1234.08474-.62946.1351-1.14822.22631-1.65971,1.81779-10.19322,3.65693-20.38271,5.43682-30.58252a1.5682,1.5682,0,0,1,1.60614-1.53489c1.984-.26451,3.94644-.70478,6.23418-1.13136-.27168,2.04852-.51806,3.90608-.76444,5.76362l.36977.17928a7.4466,7.4466,0,0,0,.93217-1.12845c2.70523-4.97865,6.69168-7.60932,12.41233-7.51364,1.86649.03122,3.74805-.60547,5.953-.995C221.56494,57.882,223.32,65.761,225.10433,73.77168Z"/>
        <path class="cls-1" d="M142.71521,50.70559c-.80276,5.52631-1.5822,10.89217-2.42189,16.67276.61994-.541,1.025-.87957,1.41395-1.23621a13.40469,13.40469,0,0,1,11.90924-3.59931,8.019,8.019,0,0,1,6.98,8.13289,21.85422,21.85422,0,0,1-.30163,3.69751c-.38382,2.83094-.97966,5.64342-1.19245,8.48445a13.269,13.269,0,0,1-2.63771,7.00869,17.56709,17.56709,0,0,1-11.86466,7.49406c-3.146.44286-6.04194-.24491-7.81393-3.35123a7.57188,7.57188,0,0,0-.836-.94443c-.2935,1.557-.49072,2.9001-.82216,4.20888-.12473.49253-.48971,1.21239-.86627,1.30471-2.359.57835-4.75214,1.00869-7.368,1.53512.0904-.71636.13652-1.275.2338-1.82468,2.61341-14.76616,5.26264-29.52615,7.80613-44.30428.27739-1.61164.80175-2.28934,2.42759-2.39192A51.7535,51.7535,0,0,0,142.71521,50.70559Zm9.08807,29.44911c.07912-1.60034.30553-4.18226.30577-6.76271a4.04172,4.04172,0,0,0-3.92372-4.231c-3.67-.37523-7.6622,1.92144-8.67035,5.51708a65.41779,65.41779,0,0,0-1.81782,10.13823c-.45023,3.89712,1.74132,5.92381,5.6091,5.53657C147.70175,89.91276,150.94229,86.3388,151.80328,80.1547Z"/>
        <path class="cls-1" d="M25.43761,107.45858c.25079-.49261.52891-.97311.74837-1.47958q7.3827-17.03763,14.77089-34.0728a1.49621,1.49621,0,0,1,.8353-.80917c2.73121-.62047,5.47722-1.17172,8.3754-1.77649-1.2688,2.83349-2.53,5.59905-3.74939,8.38327q-4.53238,10.34839-9.03293,20.711c-2.577,5.9242-5.13285,11.85781-7.73154,17.77225-.19144.43567-.61312,1.014-.997,1.0778-2.706.44953-5.4301.78166-8.22248,1.16132-1.15269-4.63983-2.32936-9.31848-3.47614-14.00487-2.05546-8.39989-4.08406-16.80669-6.14331-25.20558-.629-2.56541-.6009-2.68871,1.90505-3.27723,1.29046-.30307,2.63925-.38676,3.89578-.78736,1.51868-.48416,2.11255.14908,2.44844,1.52654.71241,2.92159,1.58252,5.80535,2.21358,8.74443q1.76,8.19674,3.2985,16.44338c.33614,1.78437.39212,3.62505.57624,5.44Z"/>
        <path class="cls-1" d="M194.60371,101.85727c-.14986,3.3827-.15258,3.36722-3.07536,3.91537-13.76965,2.5824-27.545,5.13319-41.3039,7.77562-10.47594,2.01192-20.92729,4.16035-31.3949,6.21923-12.44635,2.44805-24.89164,4.90307-37.34965,7.28655-16.78586,3.21154-33.58409,6.35385-50.3752,9.5361a9.72179,9.72179,0,0,1-6.89556-1.068c-1.294-.731-2.92234-.83277-4.289-1.46389-.68608-.31685-1.57435-1.16717-1.59338-1.8053-.0725-2.432.17162-4.87591.3007-7.37861a2.62672,2.62672,0,0,1,2.74964,2.0554A9.35265,9.35265,0,0,0,24.19,131.48787a7.07658,7.07658,0,0,0,6.08069,1.544c3.74868-.74821,7.5131-1.41189,11.26762-2.12936,18.30009-3.49705,36.60812-6.95075,54.89609-10.51445,19.7463-3.84788,39.46406-7.8525,59.21265-11.68769,11.51369-2.236,23.06142-4.2854,34.59941-6.38592C191.63815,102.06107,193.06483,102.01334,194.60371,101.85727Z"/>
        <path class="cls-1" d="M23.91493,125.20733c1.16413-.32647,2.23952-.72354,3.34808-.92452q22.24719-4.03356,44.5019-8.02249c13.16474-2.3815,26.34128-4.69872,39.48223-7.21409,15.12408-2.895,30.1964-6.08047,45.32606-8.94278,11.31775-2.14116,22.693-3.956,34.03674-5.9524,1.81275-.319,3.59423-.82881,5.35793-1.24284.10909.21857.19751.31085.19295.39879-.19689,3.8046-.21349,3.71159-3.84129,4.36428q-21.39181,3.8487-42.76377,7.815c-15.33918,2.87639-30.66122,5.85078-45.98687,8.80386-7.97454,1.53662-15.938,3.1345-23.91149,4.677-7.34839,1.42163-14.70728,2.78542-22.05467,4.2125q-13.521,2.62617-27.029,5.32379C27.84723,129.0482,25.58021,128.0444,23.91493,125.20733Z"/>
        <path class="cls-1" d="M193.319,109.581c-.11589,1.41337-.21175,2.58245-.32227,3.93043-2.121.32923-4.31223.60477-6.479,1.01788-6.36042,1.21267-12.71157,2.47746-19.06547,3.72655-8.28091,1.62792-16.56625,3.23236-24.84009,4.89787-10.61461,2.13671-21.21448,4.35175-31.83066,6.48-7.12989,1.42937-14.28356,2.73193-21.415,4.1535-10.878,2.1684-21.72212,4.52835-32.6258,6.54564q-12.66687,2.34349-25.4535,3.95867c-2.35287.2959-4.894-.53733-7.27692-1.13953-2.62365-.663-3.95935-2.90145-5.12551-5.1678a9.001,9.001,0,0,1-.37772-2.15629c.89854.62908,1.46535.96878,1.96841,1.38748a14.35608,14.35608,0,0,0,10.144,3.47878,58.42971,58.42971,0,0,0,7.41652-.80433q14.03006-2.497,28.03177-5.16432,17.288-3.28383,34.55456-6.68765c14.16456-2.8105,28.31065-5.72024,42.47084-8.55443,10.72386-2.14642,21.459-4.23275,32.18576-6.36352,5.31079-1.05494,10.61339-2.15368,15.92173-3.22192C191.869,109.76347,192.5497,109.69429,193.319,109.581Z"/>
        <path class="cls-1" d="M117.33866,101.84982l.40586-3.79469-.33489-.20436c-.517.53821-1.06844,1.04686-1.54534,1.61952a12.345,12.345,0,0,1-10.25793,4.61149c-4.22247-.10112-6.62117-2.56144-6.86426-6.8366-.28615-5.03266,1.59707-9.00387,6.16134-11.07344,4.49317-2.03732,9.20347-3.57982,13.84031-5.27681,1.951-.714,2.25343-1.1086,2.08774-3.65265a2.66529,2.66529,0,0,0-2.52874-2.625,8.70989,8.70989,0,0,0-8.4015,3.71344c-.21227.32669-.565.7594-.87967.78617-2.46359.2096-4.93381.332-7.6236.49478,1.10252-2.92681,2.3754-5.64,4.86383-7.45392a22.1908,22.1908,0,0,1,14.03608-4.46407,15.348,15.348,0,0,1,5.028,1.27581,5.386,5.386,0,0,1,3.2723,4.791,16.20768,16.20768,0,0,1-.11132,4.18012c-1.12571,6.97358-2.3612,13.92951-3.49829,20.90135-.19485,1.19471-.62641,1.7337-1.87641,1.88048C121.23869,100.94241,119.39436,101.43365,117.33866,101.84982Zm2.21942-15.7706c-3.20236,1.277-6.43557,2.47515-9.59156,3.85777a5.07546,5.07546,0,0,0-3.21669,4.81,2.19179,2.19179,0,0,0,1.86114,2.42414c3.58533.81566,9.18848-2.705,10.04051-6.34344C119.00594,89.31411,119.239,87.77188,119.55808,86.07922Z"/>
        <path class="cls-1" d="M177.98021,90.29314l.64111-3.401-.30929-.23781c-.4445.45161-.91421.88061-1.32928,1.3586a13.30736,13.30736,0,0,1-8.303,4.70938c-6.39448.94009-10.24718-3.41179-8.60115-9.76863,1.32722-5.12567,4.79392-8.10683,9.56885-9.76179,3.26484-1.13159,6.5183-2.29759,9.77885-3.44227a2.4299,2.4299,0,0,0,1.79025-2.21411c.24547-2.24244-.50272-3.32594-2.7074-3.71567-3.46681-.61285-6.15517.79661-7.82463,4.0108a1.54912,1.54912,0,0,1-1.15825.71607c-2.1017-.06761-4.19894-.25353-6.49516-.41239a11.6329,11.6329,0,0,1,3.20994-5.83371,19.38777,19.38777,0,0,1,18.71858-4.29812c2.84415.77672,4.29868,3.1117,4.338,6.24146a22.75776,22.75776,0,0,1-.3537,4.0176c-1.07748,6.43335-2.23057,12.85417-3.29116,19.2902-.18842,1.14347-.58506,1.60584-1.77715,1.71755C181.997,89.44529,180.14214,89.90165,177.98021,90.29314ZM179.83087,75.055c-2.755,1.08524-5.35571,2.10211-7.94914,3.138a12.7381,12.7381,0,0,0-1.42617.70746,4.77783,4.77783,0,0,0-2.40285,3.95065c-.242,2.13666.43652,3.01416,2.505,3.22242,2.99626.30167,7.49526-2.76846,8.25776-5.73973C179.24111,78.67543,179.4706,76.96621,179.83087,75.055Z"/>
        <path class="cls-1" d="M185.84557,120.67309c-8.24458,1.55578-16.50429,3.02877-24.73674,4.64986-12.86751,2.53378-25.71365,5.18314-38.5762,7.744-7.81019,1.555-15.63858,3.012-23.451,4.55515-12.395,2.44847-24.78131,4.9442-37.17677,7.39026-2.28942.45179-2.47964.87547-.98864,2.7596a5.72991,5.72991,0,0,0,.7547.82527c3.07607,2.614,6.0158,5.42337,9.27171,7.78332,8.59966,6.2334,18.3169,10.01285,28.54064,12.47451,10.7775,2.59492,21.63664,2.38261,32.52691.424a5.898,5.898,0,0,1,3.52541.34859c5.12181,2.65465,10.16146,5.47358,15.19934,8.291,1.513.84611,1.91307.75066,2.20133-.97052.81933-4.89241,1.72816-9.77426,2.36845-14.69017a5.11314,5.11314,0,0,1,3.03457-4.48745c6.54518-3.404,11.97237-8.378,17.15444-13.61425a82.52649,82.52649,0,0,0,16.58648-24.76434C189.89593,119.84256,187.87641,120.28982,185.84557,120.67309Z"/>
      </g>
      <g>
        <path class="cls-2" d="M217.1007,45.04163c2.47272-.74813,4.81755-1.59472,7.19909-.24765.16721.09458.49092-.10771.74482-.155,1.39522-.25976,2.79263-.507,4.18681-.77241,1.63757-.31178,3.28469-.58389,4.906-.96984,2.6735-.63645,5.29687-1.6479,7.99953-1.973,6.70652-.8068,8.81484,4.53468,8.07665,9.1776a13.05191,13.05191,0,0,1-.97922,3.24132q-8.12174,18.13854-16.327,36.23864a25.587,25.587,0,0,1-7.81539,9.9172,20.08124,20.08124,0,0,1-18.72639,3.18466,19.45885,19.45885,0,0,1-3.464-1.94165c-.21645,1.1483-.35967,2.18266-.61012,3.19014-1.22176,4.91455-1.92085,10.05254-3.82054,14.68661a86.65772,86.65772,0,0,1-21.18417,30.86439,114.06164,114.06164,0,0,1-15.60946,12.57362,2.82919,2.82919,0,0,0-1.17261,1.59223c-.91187,4.5438-1.788,9.09722-2.53966,13.66986-.43588,2.65169-.67982,5.33992-.89419,8.02053-.10848,1.35664-.59528,1.89894-1.89151,1.417a12.35751,12.35751,0,0,1-1.86064-.85989c-3.80674-2.19372-7.62691-4.36559-11.39011-6.63417-2.17643-1.312-4.21846-2.85323-6.39667-4.162a4.14775,4.14775,0,0,0-2.62486-.72062,87.53262,87.53262,0,0,1-21.051,1.34125,81.01881,81.01881,0,0,1-29.98115-7.125A79.38249,79.38249,0,0,1,56.049,150.82822a9.69136,9.69136,0,0,1-1.80781-2.0161c-.981-1.94457-2.49913-1.84766-4.27257-1.5787-6.39852.97041-12.7921,2.03066-19.22034,2.72046-7.14909.76716-12.63343-2.67925-16.88023-8.0943-2.43358-3.103-2.44332-7.034-1.81713-10.85154.63727-3.88507,1.48888-7.73529,2.11859-11.6214a9.03068,9.03068,0,0,0-.1117-3.65714c-2.55773-9.6026-5.19664-19.18244-7.8424-28.76-.371-1.34284-.90943-2.637-1.3743-3.95225A9.67513,9.67513,0,0,1,10.5347,70.35561a13.44167,13.44167,0,0,1,4.59023-1.25492c6.39006-.012,12.282-2.56385,18.46188-3.62837,6.21759-1.071,12.34653-2.68165,18.54451-3.89034,14.121-2.75379,28.26876-5.36141,42.39041-8.112,15.47615-3.01438,30.91914-6.21261,46.40625-9.1643,14.965-2.8522,29.96618-5.50136,44.95466-8.22094,5.11648-.92836,10.24165-1.80545,15.36454-2.6956,5.16654-.89772,9.21073,1.17139,12.56013,4.94539A11.50993,11.50993,0,0,1,217.1007,45.04163Zm-25.0205,74.35021c-2.18425.45075-4.20379.898-6.23464,1.28122-8.24459,1.55581-16.5043,3.0288-24.73673,4.64989-12.86751,2.53376-25.71364,5.18313-38.5762,7.744-7.81019,1.555-15.63858,3.012-23.451,4.55519-12.395,2.44845-24.78132,4.9442-37.17678,7.39026-2.28941.45177-2.47963.87545-.98863,2.7596a5.73364,5.73364,0,0,0,.75469.82527c3.07608,2.61395,6.01581,5.42333,9.27171,7.78332,8.59967,6.23338,18.3169,10.01285,28.54065,12.47447,10.77749,2.595,21.63664,2.38263,32.52691.424a5.8983,5.8983,0,0,1,3.52541.34857c5.12181,2.65465,10.16146,5.47358,15.19934,8.291,1.513.84609,1.91307.75066,2.20133-.9705.81933-4.89241,1.72816-9.77428,2.36845-14.69019a5.11309,5.11309,0,0,1,3.03457-4.48743c6.54516-3.404,11.97237-8.378,17.15445-13.61429A82.52665,82.52665,0,0,0,192.0802,119.39184ZM71.27206,90.86172c-.89254-8.42285-6.63641-12.79464-14.82062-11.48718A19.79625,19.79625,0,0,0,47.43,83.23373c-6.2278,4.76523-8.26567,11.48743-7.98936,18.99967.26119,7.10079,5.24032,11.37381,12.23947,10.93783,8.4086-.52379,15.893-6.698,18.392-15.17137.16815-.5701.34221-1.13845.51352-1.70761a13.98523,13.98523,0,0,1,.99064,3.34876c1.22518,5.57513,4.97546,8.40283,10.57913,8.4776,6.91465.09227,11.4021-4.04,15.58742-8.81229.68517-.78123.58285-1.50637-.57885-1.94843-1.65188-.62859-3.24111-1.42492-4.91489-2.17549-2.633,3.54032-3.98876,4.50933-6.96646,4.88014a5.0265,5.0265,0,0,1-5.82914-4.39476,15.00374,15.00374,0,0,1,3.42683-12.0756c3.10255-3.75474,8.38149-3.74533,11.19275-.15526,1.93893-1.2311,3.861-2.48368,5.81655-3.67931.95263-.58245,1.06349-1.1632.40261-2.08411a9.46711,9.46711,0,0,0-7.924-4.06751c-8.39845-.0803-14.62915,3.81221-18.62351,11.32275C72.7702,86.761,72.12993,88.77551,71.27206,90.86172Zm153.83227-17.09C223.32,65.761,221.56494,57.882,219.80669,49.98853c-2.2049.38956-4.08646,1.02625-5.953.995-5.72065-.09568-9.7071,2.535-12.41233,7.51364a7.4466,7.4466,0,0,1-.93217,1.12845l-.36977-.17928c.24638-1.85754.49276-3.7151.76444-5.76362-2.28774.42658-4.25018.86685-6.23418,1.13136a1.5682,1.5682,0,0,0-1.60614,1.53489c-1.77989,10.19981-3.619,20.3893-5.43682,30.58252-.09121.51149-.14157,1.03025-.22631,1.65971,2.17669-.40255,4.18564-.85013,6.21619-1.1234a2.31727,2.31727,0,0,0,2.3044-2.25327c1.04433-5.89176,2.15885-11.776,3.45515-17.61663a11.39738,11.39738,0,0,1,9.47449-8.25245c1.62633-.12319,3.06351-.02576,3.113-2.449a33.91144,33.91144,0,0,1,1.64739,4.70172c1.87889,6.89151,3.79572,13.77318,5.56722,20.69407a5.83908,5.83908,0,0,1-4.91863,7.00082,26.5212,26.5212,0,0,1-5.05862-.19624c-.97672-.10452-1.42681.068-1.64489,1.12464a47.20883,47.20883,0,0,1-1.32817,4.81458c-.25144.78606-.12738,1.29444.67048,1.44978,1.75537.34176,3.54035.974,5.28108.869,6.43917-.38849,11.46161-3.10708,14.19-9.47437,1.92774-4.49881,4.09581-8.89261,6.16392-13.32979q5.93564-12.735,11.87249-25.46937c.34313-.738.58685-1.52322.96247-2.51225-1.465.27224-2.59761.53856-3.74429.68235-1.62137.20331-3.65122-.23036-4.7718.6168-1.19034.89987-1.52648,2.976-2.22867,4.54169q-4.12658,9.20092-8.24658,18.40486C225.92505,71.82526,225.5009,72.84852,225.10433,73.77168ZM142.71521,50.70559a51.7535,51.7535,0,0,1-5.354.887c-1.62584.10258-2.1502.78028-2.42759,2.39192-2.54349,14.77813-5.19272,29.53812-7.80613,44.30428-.09728.54964-.1434,1.10832-.2338,1.82468,2.61587-.52643,5.009-.95677,7.368-1.53512.37656-.09232.74154-.81218.86627-1.30471.33144-1.30878.52866-2.65187.82216-4.20888a7.57188,7.57188,0,0,1,.836.94443c1.772,3.10632,4.66792,3.79409,7.81393,3.35123a17.56709,17.56709,0,0,0,11.86466-7.49406,13.269,13.269,0,0,0,2.63771-7.00869c.21279-2.841.80863-5.65351,1.19245-8.48445a21.85422,21.85422,0,0,0,.30163-3.69751,8.019,8.019,0,0,0-6.98-8.13289,13.40469,13.40469,0,0,0-11.90924,3.59931c-.389.35664-.794.69522-1.41395,1.23621C141.133,61.59776,141.91245,56.2319,142.71521,50.70559Zm-117.2776,56.753-.28525-.15308c-.18412-1.81493-.2401-3.65561-.57624-5.44q-1.5525-8.24144-3.2985-16.44338c-.63106-2.93908-1.50117-5.82284-2.21358-8.74443-.33589-1.37746-.92976-2.0107-2.44844-1.52654-1.25653.4006-2.60532.48429-3.89578.78736-2.506.58852-2.53405.71182-1.90505,3.27723,2.05925,8.39889,4.08785,16.80569,6.14331,25.20558,1.14678,4.68639,2.32345,9.365,3.47614,14.00487,2.79238-.37966,5.51651-.71179,8.22248-1.16132.38389-.06379.80557-.64213.997-1.0778,2.59869-5.91444,5.15455-11.848,7.73154-17.77225q4.5065-10.35993,9.03293-20.711c1.21943-2.78422,2.48059-5.54978,3.74939-8.38327-2.89818.60477-5.64419,1.156-8.3754,1.77649a1.49621,1.49621,0,0,0-.8353.80917Q33.551,88.93353,26.186,105.979C25.96652,106.48547,25.6884,106.966,25.43761,107.45858Zm169.1661-5.60131c-1.53888.15607-2.96556.2038-4.3573.45718-11.538,2.10052-23.08572,4.15-34.59941,6.38592-19.74859,3.83519-39.46635,7.83981-59.21265,11.68769-18.288,3.5637-36.596,7.0174-54.89609,10.51445-3.75452.71747-7.51894,1.38115-11.26762,2.12936a7.07658,7.07658,0,0,1-6.08069-1.544,9.35265,9.35265,0,0,1-2.81285-4.55809,2.62672,2.62672,0,0,0-2.74964-2.0554c-.12908,2.5027-.3732,4.94657-.3007,7.37861.019.63813.9073,1.48845,1.59338,1.8053,1.36666.63112,2.995.73285,4.289,1.46389a9.72179,9.72179,0,0,0,6.89556,1.068c16.79111-3.18225,33.58934-6.32456,50.3752-9.5361,12.458-2.38348,24.9033-4.8385,37.34965-7.28655,10.46761-2.05888,20.919-4.20731,31.3949-6.21923,13.75889-2.64243,27.53425-5.19322,41.3039-7.77562C194.45113,105.22449,194.45385,105.24,194.60371,101.85727ZM23.91493,125.20733c1.66528,2.83707,3.9323,3.84087,6.6588,3.2961q13.50759-2.69889,27.029-5.32379c7.34739-1.42708,14.70628-2.79087,22.05467-4.2125,7.97348-1.54254,15.937-3.14042,23.91149-4.677,15.32565-2.95308,30.64769-5.92747,45.98687-8.80386q21.36463-4.00629,42.76377-7.815c3.6278-.65269,3.6444-.55968,3.84129-4.36428.00456-.08794-.08386-.18022-.19295-.39879-1.7637.414-3.54518.9238-5.35793,1.24284-11.34372,1.99642-22.719,3.81124-34.03674,5.9524-15.12966,2.86231-30.202,6.04779-45.32606,8.94278-13.141,2.51537-26.31749,4.83259-39.48223,7.21409q-22.24868,4.02476-44.5019,8.02249C26.15445,124.48379,25.07906,124.88086,23.91493,125.20733ZM193.319,109.581c-.76925.11334-1.44991.18252-2.11826.317-5.30834,1.06824-10.61094,2.167-15.92173,3.22192-10.72681,2.13077-21.4619,4.2171-32.18576,6.36352-14.16019,2.83419-28.30628,5.74393-42.47084,8.55443q-17.26222,3.4251-34.55456,6.68765-14.00228,2.65965-28.03177,5.16432a58.42971,58.42971,0,0,1-7.41652.80433,14.35608,14.35608,0,0,1-10.144-3.47878c-.50306-.4187-1.06987-.7584-1.96841-1.38748a9.001,9.001,0,0,0,.37772,2.15629c1.16616,2.26635,2.50186,4.50478,5.12551,5.1678,2.38288.6022,4.92405,1.43543,7.27692,1.13953q12.77107-1.60615,25.4535-3.95867c10.90368-2.01729,21.74781-4.37724,32.6258-6.54564,7.13141-1.42157,14.28508-2.72413,21.415-4.1535,10.61618-2.12827,21.216-4.34331,31.83066-6.48,8.27384-1.66551,16.55918-3.26995,24.84009-4.89787,6.3539-1.24909,12.70505-2.51388,19.06547-3.72655,2.16673-.41311,4.358-.68865,6.479-1.01788C193.1072,112.1634,193.20306,110.99432,193.319,109.581Zm-75.98029-7.73113c2.0557-.41617,3.9-.90741,5.77347-1.12741,1.25-.14678,1.68156-.68577,1.87641-1.88048,1.13709-6.97184,2.37258-13.92777,3.49829-20.90135a16.20768,16.20768,0,0,0,.11132-4.18012,5.386,5.386,0,0,0-3.2723-4.791,15.348,15.348,0,0,0-5.028-1.27581,22.1908,22.1908,0,0,0-14.03608,4.46407c-2.48843,1.81391-3.76131,4.52711-4.86383,7.45392,2.68979-.16273,5.16-.28518,7.6236-.49478.31471-.02677.6674-.45948.87967-.78617a8.70989,8.70989,0,0,1,8.4015-3.71344,2.66529,2.66529,0,0,1,2.52874,2.625c.16569,2.54405-.13674,2.93861-2.08774,3.65265-4.63684,1.697-9.34714,3.23949-13.84031,5.27681-4.56427,2.06957-6.44749,6.04078-6.16134,11.07344.24309,4.27516,2.64179,6.73548,6.86426,6.8366a12.345,12.345,0,0,0,10.25793-4.61149c.4769-.57266,1.02832-1.08131,1.54534-1.61952l.33489.20436Zm60.64155-11.55668c2.16193-.39149,4.01683-.84785,5.89537-1.02389,1.19209-.11171,1.58873-.57408,1.77715-1.71755,1.06059-6.436,2.21368-12.85685,3.29116-19.2902a22.75776,22.75776,0,0,0,.3537-4.0176c-.03928-3.12976-1.49381-5.46474-4.338-6.24146a19.38777,19.38777,0,0,0-18.71858,4.29812,11.6329,11.6329,0,0,0-3.20994,5.83371c2.29622.15886,4.39346.34478,6.49516.41239a1.54912,1.54912,0,0,0,1.15825-.71607c1.66946-3.21419,4.35782-4.62365,7.82463-4.0108,2.20468.38973,2.95287,1.47323,2.7074,3.71567a2.4299,2.4299,0,0,1-1.79025,2.21411c-3.26055,1.14468-6.514,2.31068-9.77885,3.44227-4.77493,1.655-8.24163,4.63612-9.56885,9.76179-1.646,6.35684,2.20667,10.70872,8.60115,9.76863a13.30736,13.30736,0,0,0,8.303-4.70938c.41507-.478.88478-.907,1.32928-1.3586l.30929.23781Z"/>
        <path class="cls-2" d="M180.12708,29.56534c-3.82563-3.36927-7.48144-6.99335-11.59626-9.95753-12.203-8.79066-26.047-13.106-40.89051-14.35254A84.14744,84.14744,0,0,0,72.40171,19.4768Q68.841,21.85229,65.2351,24.15646a2.7038,2.7038,0,0,1-.3615,1.4089q-1.10919,1.85351-2.21838,3.707a4.1255,4.1255,0,0,1-1.16928,1.27883l-.32339,1.71556a5.89616,5.89616,0,0,1,1.66783-.75885c.49482-.13627.99351-.1952,1.48959-.30848-.26156.05972.12807-.07152.33459-.23861a2.854,2.854,0,0,1,2.193-.56974,81.65577,81.65577,0,0,1,33.57182-17.63168c19.21955-5.05171,37.77057-2.1847,55.59577,6.05256,7.08913,3.276,13.2206,8.03161,19.06893,13.1888,1.95973,1.72815,4.53854,1.58643,6.71051-.33518A14.725,14.725,0,0,0,180.12708,29.56534Z"/>
        <path class="cls-2" d="M147.12523,33.71817c-.49734,1.70556-1.88249,2.32213-3.55617,2.61622-5.59456.983-11.19535,1.93479-16.77281,3.01418-14.07593,2.72408-28.13764,5.52664-42.21083,8.266-6.20231,1.20729-12.41779,2.3425-18.62917,3.49966-1.93805.36107-3.2208-.277-3.56974-1.73183-.38664-1.61206.53367-3.03335,2.5036-3.48986,3.10317-.71915,6.23437-1.31335,9.36063-1.92246Q89.176,41.062,104.1063,38.1812q19.074-3.70546,38.14786-7.41113a9.37394,9.37394,0,0,1,2.52412-.19425A2.61579,2.61579,0,0,1,147.12523,33.71817Z"/>
        <path class="cls-2" d="M138.93342,24.44469a3.00613,3.00613,0,0,1-2.70623,2.35094c-4.68912.89913-9.38247,1.7761-14.06388,2.71641q-18.72706,3.76157-37.4433,7.5806c-1.34876.27507-2.65544.76613-4.00149,1.06049-1.69582.37085-2.61595-.209-3.16185-1.85107a2.514,2.514,0,0,1,1.45184-3.46323,34.5954,34.5954,0,0,1,5.23543-1.28769c8.8391-1.77553,17.6897-3.49031,26.52505-5.2853,8.10786-1.6472,16.19789-3.38793,24.3034-5.04778C137.6883,20.68237,139.45325,22.10992,138.93342,24.44469Z"/>
        <path class="cls-2" d="M62.72616,94.67592c-1.17418,4.36033-2.57541,8.20836-6.78158,10.146-4.61338,2.12529-8.25153-.13476-8.42472-5.25715a15.96509,15.96509,0,0,1,2.34281-9.2574,8.32528,8.32528,0,0,1,8.01062-4.30556c3.07488.2318,4.887,2.27058,5.01231,5.39928A32.77114,32.77114,0,0,1,62.72616,94.67592Z"/>
        <path class="cls-2" d="M151.80328,80.1547c-.861,6.1841-4.10153,9.75806-8.497,10.19815-3.86778.38724-6.05933-1.63945-5.6091-5.53657A65.41779,65.41779,0,0,1,139.515,74.67805c1.00815-3.59564,5.00032-5.89231,8.67035-5.51708a4.04172,4.04172,0,0,1,3.92372,4.231C152.10881,75.97244,151.8824,78.55436,151.80328,80.1547Z"/>
        <path class="cls-2" d="M119.55808,86.07922c-.31908,1.69266-.55214,3.23489-.9066,4.74846-.852,3.63844-6.45518,7.1591-10.04051,6.34344a2.19179,2.19179,0,0,1-1.86114-2.42414,5.07546,5.07546,0,0,1,3.21669-4.81C113.12251,88.55437,116.35572,87.35619,119.55808,86.07922Z"/>
        <path class="cls-2" d="M179.83087,75.055c-.36027,1.9112-.58976,3.62042-1.01536,5.27882-.7625,2.97127-5.2615,6.0414-8.25776,5.73973-2.06852-.20826-2.747-1.08576-2.505-3.22242a4.77783,4.77783,0,0,1,2.40285-3.95065,12.7381,12.7381,0,0,1,1.42617-.70746C174.47516,77.15712,177.07587,76.14025,179.83087,75.055Z"/>
        <path class="cls-2" d="M73.98481,18.443S48.97434,31.284,36.77438,59.95144l5.82848,1.09868s14.303-25.76962,33.572-37.71862Z"/>
        <g>
          <ellipse class="cls-2" cx="112.38641" cy="153.26975" rx="4.20858" ry="4.13426" transform="translate(-59.04929 235.31926) rotate(-79.32482)"/>
          <ellipse class="cls-2" cx="132.57664" cy="149.16915" rx="4.20858" ry="4.13426" transform="translate(-38.56949 251.81907) rotate(-79.32482)"/>
          <ellipse class="cls-2" cx="151.69672" cy="143.87852" rx="4.20858" ry="4.13426" transform="translate(-17.79216 266.29764) rotate(-79.32482)"/>
        </g>
      </g>
    </g>
  </g>
</svg>
