<?xml version="1.0" encoding="utf-8"?>
<!-- Generator: Adobe Illustrator 23.0.1, SVG Export Plug-In . SVG Version: 6.00 Build 0)  -->
<svg version="1.1" xmlns="http://www.w3.org/2000/svg" xmlns:xlink="http://www.w3.org/1999/xlink" x="0px" y="0px"
	 viewBox="0 0 260 200" style="enable-background:new 0 0 260 200;" xml:space="preserve">
<style type="text/css">
	.st0{filter:url(#Adobe_OpacityMaskFilter);}
	.st1{mask:url(#SVGID_1_);}
	.st2{fill:url(#SVGID_2_);}
	.st3{filter:url(#Adobe_OpacityMaskFilter_1_);}
	.st4{mask:url(#SVGID_3_);}
	.st5{fill:url(#SVGID_4_);}
	.st6{filter:url(#Adobe_OpacityMaskFilter_2_);}
	.st7{mask:url(#SVGID_5_);}
	.st8{fill:url(#SVGID_6_);}
	.st9{fill:#383838;}
	.st10{fill:url(#SVGID_7_);}
	.st11{opacity:0.3;}
	.st12{opacity:0.7;clip-path:url(#SVGID_9_);}
	.st13{fill:none;stroke:url(#SVGID_10_);stroke-miterlimit:10;}
	.st14{fill:none;stroke:url(#SVGID_11_);stroke-miterlimit:10;}
	.st15{fill:none;stroke:url(#SVGID_12_);stroke-miterlimit:10;}
	.st16{fill:none;stroke:url(#SVGID_13_);stroke-miterlimit:10;}
	.st17{fill:none;stroke:url(#SVGID_14_);stroke-miterlimit:10;}
	.st18{fill:none;stroke:url(#SVGID_15_);stroke-miterlimit:10;}
	.st19{fill:none;stroke:url(#SVGID_16_);stroke-miterlimit:10;}
	.st20{fill:none;stroke:url(#SVGID_17_);stroke-miterlimit:10;}
	.st21{fill:none;stroke:url(#SVGID_18_);stroke-miterlimit:10;}
	.st22{fill:none;stroke:url(#SVGID_19_);stroke-miterlimit:10;}
	.st23{fill:none;stroke:url(#SVGID_20_);stroke-miterlimit:10;}
	.st24{fill:none;stroke:url(#SVGID_21_);stroke-miterlimit:10;}
	.st25{fill:none;stroke:url(#SVGID_22_);stroke-miterlimit:10;}
	.st26{fill:none;stroke:url(#SVGID_23_);stroke-miterlimit:10;}
	.st27{fill:none;stroke:url(#SVGID_24_);stroke-miterlimit:10;}
	.st28{fill:none;stroke:url(#SVGID_25_);stroke-miterlimit:10;}
	.st29{fill:none;stroke:url(#SVGID_26_);stroke-miterlimit:10;}
	.st30{fill:none;stroke:url(#SVGID_27_);stroke-miterlimit:10;}
	.st31{fill:none;stroke:url(#SVGID_28_);stroke-miterlimit:10;}
	.st32{fill:none;stroke:url(#SVGID_29_);stroke-miterlimit:10;}
	.st33{fill:none;stroke:url(#SVGID_30_);stroke-miterlimit:10;}
	.st34{fill:none;stroke:url(#SVGID_31_);stroke-miterlimit:10;}
	.st35{fill:none;stroke:url(#SVGID_32_);stroke-miterlimit:10;}
	.st36{fill:none;stroke:url(#SVGID_33_);stroke-miterlimit:10;}
	.st37{fill:none;stroke:url(#SVGID_34_);stroke-miterlimit:10;}
	.st38{fill:none;stroke:url(#SVGID_35_);stroke-miterlimit:10;}
	.st39{fill:none;stroke:url(#SVGID_36_);stroke-miterlimit:10;}
	.st40{fill:none;stroke:url(#SVGID_37_);stroke-miterlimit:10;}
	.st41{fill:none;stroke:url(#SVGID_38_);stroke-miterlimit:10;}
	.st42{fill:none;stroke:url(#SVGID_39_);stroke-miterlimit:10;}
	.st43{fill:none;stroke:url(#SVGID_40_);stroke-miterlimit:10;}
	.st44{fill:none;stroke:url(#SVGID_41_);stroke-miterlimit:10;}
	.st45{fill:none;stroke:url(#SVGID_42_);stroke-miterlimit:10;}
	.st46{fill:none;stroke:url(#SVGID_43_);stroke-miterlimit:10;}
	.st47{fill:none;stroke:url(#SVGID_44_);stroke-miterlimit:10;}
	.st48{fill:none;stroke:url(#SVGID_45_);stroke-miterlimit:10;}
	.st49{fill:none;stroke:url(#SVGID_46_);stroke-miterlimit:10;}
	.st50{fill:none;stroke:url(#SVGID_47_);stroke-miterlimit:10;}
	.st51{fill:none;stroke:url(#SVGID_48_);stroke-miterlimit:10;}
	.st52{fill:none;stroke:url(#SVGID_49_);stroke-miterlimit:10;}
	.st53{fill:none;stroke:url(#SVGID_50_);stroke-miterlimit:10;}
	.st54{fill:none;stroke:url(#SVGID_51_);stroke-miterlimit:10;}
	.st55{fill:none;stroke:url(#SVGID_52_);stroke-miterlimit:10;}
	.st56{fill:none;stroke:url(#SVGID_53_);stroke-miterlimit:10;}
	.st57{fill:none;stroke:url(#SVGID_54_);stroke-miterlimit:10;}
	.st58{fill:none;stroke:url(#SVGID_55_);stroke-miterlimit:10;}
	.st59{fill:none;stroke:url(#SVGID_56_);stroke-miterlimit:10;}
	.st60{fill:none;stroke:url(#SVGID_57_);stroke-miterlimit:10;}
	.st61{fill:none;stroke:url(#SVGID_58_);stroke-miterlimit:10;}
	.st62{fill:none;stroke:url(#SVGID_59_);stroke-miterlimit:10;}
	.st63{fill:none;stroke:url(#SVGID_60_);stroke-miterlimit:10;}
	.st64{fill:none;stroke:url(#SVGID_61_);stroke-miterlimit:10;}
	.st65{fill:none;stroke:url(#SVGID_62_);stroke-miterlimit:10;}
	.st66{fill:none;stroke:url(#SVGID_63_);stroke-miterlimit:10;}
	.st67{fill:none;stroke:url(#SVGID_64_);stroke-miterlimit:10;}
	.st68{fill:none;stroke:url(#SVGID_65_);stroke-miterlimit:10;}
	.st69{fill:none;stroke:url(#SVGID_66_);stroke-width:4;stroke-miterlimit:10;}
	.st70{fill:none;stroke:url(#SVGID_67_);stroke-width:4;stroke-miterlimit:10;}
	.st71{fill:none;stroke:url(#SVGID_68_);stroke-width:4;stroke-miterlimit:10;}
	.st72{fill:none;stroke:url(#SVGID_69_);stroke-width:4;stroke-miterlimit:10;}
	.st73{opacity:0.7;clip-path:url(#SVGID_9_);fill:none;stroke:url(#SVGID_70_);stroke-miterlimit:10;}
	.st74{fill:none;stroke:url(#SVGID_71_);stroke-miterlimit:10;}
	.st75{opacity:0.7;clip-path:url(#SVGID_9_);fill:none;stroke:url(#SVGID_72_);stroke-miterlimit:10;}
	.st76{opacity:0.7;clip-path:url(#SVGID_9_);fill:none;stroke:url(#SVGID_73_);stroke-width:4;stroke-miterlimit:10;}
	.st77{opacity:0.7;clip-path:url(#SVGID_9_);fill:none;stroke:url(#SVGID_74_);stroke-miterlimit:10;}
	.st78{opacity:0.7;clip-path:url(#SVGID_9_);fill:none;stroke:url(#SVGID_75_);stroke-miterlimit:10;}
	.st79{opacity:0.7;clip-path:url(#SVGID_9_);fill:none;stroke:url(#SVGID_76_);stroke-miterlimit:10;}
	.st80{opacity:0.7;clip-path:url(#SVGID_9_);fill:none;stroke:url(#SVGID_77_);stroke-miterlimit:10;}
	.st81{fill:none;stroke:url(#SVGID_78_);stroke-miterlimit:10;}
	.st82{fill:none;stroke:url(#SVGID_79_);stroke-miterlimit:10;}
	.st83{fill:none;stroke:url(#SVGID_80_);stroke-miterlimit:10;}
	.st84{fill:none;stroke:url(#SVGID_81_);stroke-miterlimit:10;}
	.st85{fill:none;stroke:url(#SVGID_82_);stroke-miterlimit:10;}
	.st86{fill:none;stroke:url(#SVGID_83_);stroke-miterlimit:10;}
	.st87{opacity:0.7;clip-path:url(#SVGID_9_);fill:url(#SVGID_84_);}
	.st88{opacity:0.7;clip-path:url(#SVGID_9_);fill:url(#SVGID_85_);}
	.st89{opacity:0.7;clip-path:url(#SVGID_9_);fill:url(#SVGID_86_);}
	.st90{opacity:0.7;clip-path:url(#SVGID_9_);fill:url(#SVGID_87_);}
	.st91{opacity:0.7;clip-path:url(#SVGID_9_);fill:url(#SVGID_88_);}
	.st92{opacity:0.7;clip-path:url(#SVGID_9_);fill:url(#SVGID_89_);}
	.st93{fill:none;stroke:url(#SVGID_90_);stroke-miterlimit:10;}
	.st94{fill:url(#SVGID_91_);}
	.st95{opacity:8.000000e-02;}
	.st96{opacity:0.5;clip-path:url(#SVGID_94_);fill:url(#SVGID_95_);}
	.st97{clip-path:url(#SVGID_94_);}
	.st98{fill:url(#SVGID_96_);}
	.st99{fill:url(#SVGID_97_);}
	.st100{fill:url(#SVGID_98_);}
	.st101{fill:url(#SVGID_99_);}
	.st102{fill:url(#SVGID_100_);}
	.st103{fill:#FFFFFF;}
	.st104{opacity:0.5;clip-path:url(#SVGID_103_);fill:url(#SVGID_104_);}
	.st105{clip-path:url(#SVGID_103_);}
	.st106{fill:url(#SVGID_105_);}
	.st107{fill:url(#SVGID_106_);}
	.st108{fill:url(#SVGID_107_);}
	.st109{fill:url(#SVGID_108_);}
	.st110{fill:url(#SVGID_109_);}
	.st111{fill:url(#SVGID_110_);}
	.st112{filter:url(#Adobe_OpacityMaskFilter_3_);}
	.st113{mask:url(#SVGID_111_);}
	.st114{fill:url(#SVGID_112_);}
	.st115{filter:url(#Adobe_OpacityMaskFilter_4_);}
	.st116{mask:url(#SVGID_113_);}
	.st117{fill:url(#SVGID_114_);}
	.st118{filter:url(#Adobe_OpacityMaskFilter_5_);}
	.st119{mask:url(#SVGID_115_);}
	.st120{fill:url(#SVGID_116_);}
	.st121{filter:url(#Adobe_OpacityMaskFilter_6_);}
	.st122{mask:url(#SVGID_117_);}
	.st123{opacity:0.1;fill:#FFFFFF;}
	.st124{fill:url(#SVGID_118_);}
	.st125{opacity:0.2;fill:#FFFFFF;}
	.st126{fill:url(#SVGID_121_);}
	.st127{opacity:0.5;fill:#FFFFFF;}
	.st128{fill:none;stroke:#FFFFFF;stroke-miterlimit:10;}
	.st129{fill:#FEFDFD;}
	.st130{fill:#141414;}
	.st131{opacity:0.3;fill:#FFFFFF;}
	.st132{fill:url(#SVGID_126_);}
	.st133{fill:url(#SVGID_127_);}
	.st134{fill:url(#SVGID_128_);}
	.st135{fill:url(#SVGID_129_);}
	.st136{fill:url(#SVGID_130_);}
	.st137{fill:url(#SVGID_131_);}
	.st138{fill:url(#SVGID_132_);}
	.st139{fill:url(#SVGID_133_);}
	.st140{fill:url(#SVGID_134_);}
	.st141{filter:url(#Adobe_OpacityMaskFilter_7_);}
	.st142{mask:url(#SVGID_135_);}
	.st143{fill:url(#SVGID_136_);}
	.st144{fill:url(#SVGID_139_);}
	.st145{filter:url(#Adobe_OpacityMaskFilter_8_);}
	.st146{mask:url(#SVGID_144_);}
	.st147{fill:url(#SVGID_145_);}
	.st148{fill:url(#SVGID_146_);}
	.st149{fill:url(#SVGID_147_);}
	.st150{fill:url(#SVGID_148_);}
	.st151{fill:url(#SVGID_149_);}
	.st152{fill:url(#SVGID_150_);}
	.st153{fill:url(#SVGID_151_);}
	.st154{fill:url(#SVGID_152_);}
	.st155{fill:url(#SVGID_153_);}
	.st156{fill:url(#SVGID_154_);}
	.st157{fill:#6052AC;}
</style>
<g id="Background">
</g>
<g id="Camada_1">
	<g>
		<g>
			<g>
				<ellipse class="st103" cx="121.5" cy="94.4" rx="92.8" ry="91.9"/>
				<path class="st103" d="M257.4,50.3c-0.5-4.5-2-8.4-6.5-9.8c-2.6-0.9-5.6-1.1-8.3-0.8c-5.9,0.8-11.8,2.2-17.7,3.3
					c-1,0.2-1.6,0-2-1c-0.1-0.5-0.4-0.9-0.6-1.3c-3.2-5.6-7.8-9.5-14.3-9.5c-5.3,0-10.5,1.3-15.8,2.2c-0.9,0.2-1.5,0.1-2.2-0.4
					c-0.9,0-1.8-0.1-2.7-0.3c-2.5,3.5-7.2,5.8-11.2,4.1c-8.3-3.3-15.5-8-23.2-12.3c-6.7-3.8-12.8-5.5-20.5-5.1
					c-9.9,0.6-19.9,0.6-29.8,2c-7.4,1-16.5,1.9-22.3,7.1c-3.9,3.5-9.6,4.1-13.7,0.9c-3,4.5-6,9-8.9,13.6c0.4,0.3,0.9,0.6,1.3,0.9
					c-0.3,0.3-0.5,0.6-0.8,0.9l-0.8-1.3c-2.5,3.9-4.9,7.9-7.2,12c-0.5,1.4-1.2,2.7-2.1,3.9c-0.9,1.6-2.2,2.8-3.7,3.8
					c-0.8,0.4-1.7,0.7-2.5,1.1c-2.5,0.8-5.3,0.3-7.7-0.9c0,0,0,0.1,0,0.1c-0.4,1-0.9,1.3-1.9,1.5c-4.6,0.7-9.2,1.5-13.9,2.3
					c-1.9,0.3-3.9,0.7-5.8,1.3C10.2,69.3,7.8,70.8,6,73C2.1,77.9,1.7,83.2,3.5,89c1.4,4.4,2.4,8.8,3.7,13.2
					c1.6,5.6,3.2,11.1,4.8,16.6c0.4,1.4,0.7,2.9,0.5,4.3c-0.7,4.9-1.7,9.8-2.6,14.7c-0.8,4.4,0.2,8.6,2.9,11.9
					c5.3,6.5,12.1,10.3,20.8,9.2c6.2-0.8,12.3-1.6,18.5-2.5c1-0.1,1.5,0.1,2.2,0.8c0.3,0.3,0.6,0.7,1,1c0.6,0,1.3,0,1.9,0.2
					c1.4,0.1,2.7,0.5,3.9,1.3c0.2,0.1,0.5,0.3,0.7,0.4c0.9,0.6,1.8,1.3,2.6,2.1c1,1,1.8,2.1,2.5,3.3c0.2,0.3,0.4,0.7,0.5,1.1
					c1.8,2,4.8,2.2,7.5,3.1c5.1,1.6,9.6,4.6,14.4,6.9c9.5,4.6,20.4,6.3,30.6,8.4c0.5,0.1,0.9,0.2,1.3,0.4c5-0.1,10-0.4,15-1
					c0.7-0.1,1.7,0.1,2.2,0.5c5.7,4.9,12.2,8.2,18.7,11.7c1.2,0.6,2.6,0.8,4,1c1.2,0.2,1.9-0.4,2.2-1.8c1.2-7.6,2.6-15.1,3.8-22.7
					c0.2-1.3,0.7-2.2,1.7-3c5-4.2,10.2-8.3,15-12.9c12.2-11.5,20.3-25.8,25.3-41.9c1.2-3.7,1.1-3.6,4.8-3.4
					c5.3,0.3,10.3-0.6,14.9-3.4c4.6-2.8,7.8-6.9,10.3-11.7c6.5-12.1,11-25.1,16.7-37.5C257,56.4,257.7,53.4,257.4,50.3z M81.8,35.7
					c1.7-0.6,3.5-0.9,5.3-1.3c8.9-1.8,17.7-3.5,26.6-5.4c8.1-1.7,16.3-3.4,24.4-5.1c2.6-0.5,4.4,0.9,3.9,3.3
					c-0.3,1.4-1.3,2.1-2.7,2.4c-4.7,0.9-9.4,1.8-14.1,2.8c-12.5,2.5-25,5.1-37.6,7.7c-1.4,0.3-2.7,0.8-4,1.1
					c-1.7,0.4-2.6-0.2-3.2-1.9C79.8,37.7,80.2,36.3,81.8,35.7z M67.6,48.9c3.1-0.7,6.3-1.3,9.4-2c10-2,20-3.9,30-5.9
					c12.8-2.5,25.5-5,38.3-7.5c0.8-0.2,1.7-0.3,2.5-0.2c1.6,0.1,2.7,1.6,2.4,3.2c-0.5,1.7-1.9,2.4-3.6,2.7c-5.6,1-11.2,2-16.8,3.1
					c-14.1,2.8-28.2,5.6-42.3,8.4c-6.2,1.2-12.5,2.4-18.7,3.6c-1.9,0.4-3.2-0.3-3.6-1.8C64.7,50.9,65.6,49.4,67.6,48.9z M253.5,53.2
					c-0.2,1.1-0.5,2.3-1,3.3c-5.4,12.3-10.9,24.6-16.4,36.8c-1.8,4-4.4,7.5-7.8,10.1c-5.7,4.3-12.1,5.3-18.8,3.2
					c-1.1-0.3-2.1-1.2-3.5-2c-0.2,1.2-0.4,2.2-0.6,3.2c-1.2,5-1.9,10.2-3.8,14.9c-4.8,12-11.9,22.5-21.3,31.3
					c-4.9,4.7-10,9.1-15.7,12.8c-0.5,0.3-1.1,1-1.2,1.6c-0.9,4.6-1.8,9.2-2.5,13.9c-0.4,2.7-0.7,5.4-0.9,8.1
					c-0.1,1.4-0.6,1.9-1.9,1.4c-0.6-0.2-1.3-0.5-1.9-0.9c-3.8-2.2-7.7-4.4-11.4-6.7c-2.2-1.3-4.2-2.9-6.4-4.2
					c-0.8-0.5-1.8-0.9-2.6-0.7c-7,1.4-14,1.6-21.1,1.4c-10.5-0.4-20.5-2.9-30.1-7.2c-9.7-4.4-18.5-10.1-25.9-18
					c-0.6-0.7-1.4-1.3-1.8-2c-1-2-2.5-1.9-4.3-1.6c-6.4,1-12.8,2.1-19.3,2.8c-7.2,0.8-12.7-2.7-16.9-8.2c-2.4-3.2-2.5-7.1-1.8-11
					c0.6-3.9,1.5-7.9,2.1-11.8c0.2-1.2,0.2-2.5-0.1-3.7c-2.6-9.8-5.2-19.5-7.9-29.2c-0.4-1.4-0.9-2.7-1.4-4
					c-1.9-5.4,0.5-10.8,5.7-12.9c1.5-0.6,3.1-1.3,4.6-1.3c6.4,0,12.3-2.6,18.5-3.7c6.2-1.1,12.4-2.7,18.6-4
					c14.2-2.8,28.4-5.4,42.5-8.2c15.5-3.1,31-6.3,46.6-9.3c15-2.9,30.1-5.6,45.1-8.3c5.1-0.9,10.3-1.8,15.4-2.7
					c5.2-0.9,9.2,1.2,12.6,5c1.7,1.9,3.1,4,3.3,6.8c2.5-0.8,4.8-1.6,7.2-0.3c0.2,0.1,0.5-0.1,0.7-0.2c1.4-0.3,2.8-0.5,4.2-0.8
					c1.6-0.3,3.3-0.6,4.9-1c2.7-0.6,5.3-1.7,8-2C252.1,43.1,254.3,48.5,253.5,53.2z"/>
				<path class="st103" d="M74,94.6c0.9-2.1,1.5-4.2,2.5-6c4-7.6,10.3-11.6,18.7-11.5c3.2,0,6,1.3,7.9,4.1c0.7,0.9,0.6,1.5-0.4,2.1
					c-2,1.2-3.9,2.5-5.8,3.7c-2.8-3.6-8.1-3.7-11.2,0.2c-2.9,3.5-4.1,7.7-3.4,12.3c0.4,3,2.9,4.8,5.8,4.5c3-0.4,4.3-1.4,7-5
					c1.7,0.8,3.3,1.6,4.9,2.2c1.2,0.4,1.3,1.2,0.6,2c-4.2,4.8-8.7,9-15.6,9c-5.6-0.1-9.4-2.9-10.6-8.6c-0.2-1.1-0.4-2.2-1-3.4
					c-0.2,0.6-0.3,1.2-0.5,1.7c-2.5,8.6-10,14.9-18.5,15.4c-7,0.4-12-3.9-12.3-11.1c-0.3-7.6,1.8-14.5,8-19.3
					c2.7-2.1,5.7-3.4,9.1-3.9C67.3,81.6,73.1,86.1,74,94.6z M65.4,98.5c0-0.9,0.2-2.1,0.2-3.3c-0.1-3.2-1.9-5.2-5-5.5
					c-3.5-0.3-6.2,1.4-8,4.4c-1.8,2.9-2.5,6-2.4,9.4c0.2,5.2,3.8,7.5,8.5,5.3C62.8,106.8,64.3,102.9,65.4,98.5z"/>
				<path class="st103" d="M228.3,77.3c0.4-0.9,0.8-2,1.3-3c2.8-6.2,5.5-12.5,8.3-18.7c0.7-1.6,1-3.7,2.2-4.6
					c1.1-0.9,3.2-0.4,4.8-0.6c1.2-0.1,2.3-0.4,3.8-0.7c-0.4,1-0.6,1.8-1,2.6c-4,8.6-7.9,17.2-11.9,25.9c-2.1,4.5-4.2,9-6.2,13.5
					c-2.7,6.5-7.8,9.2-14.2,9.6c-1.7,0.1-3.5-0.5-5.3-0.9c-0.8-0.2-0.9-0.7-0.7-1.5c0.5-1.6,1-3.2,1.3-4.9c0.2-1.1,0.7-1.2,1.7-1.1
					c1.7,0.2,3.4,0.3,5.1,0.2c3.2-0.3,5.8-3.9,4.9-7.1c-1.8-7-3.7-14-5.6-21c-0.4-1.6-0.9-3.1-1.7-4.8c0,2.5-1.5,2.4-3.1,2.5
					c-4.2,0.3-8.6,4.1-9.5,8.4c-1.3,5.9-2.4,11.9-3.5,17.9c-0.3,1.5-0.9,2.1-2.3,2.3c-2,0.3-4.1,0.7-6.2,1.1
					c0.1-0.6,0.1-1.2,0.2-1.7c1.8-10.4,3.7-20.7,5.5-31.1c0.2-1.1,0.6-1.4,1.6-1.6c2-0.3,4-0.7,6.3-1.1c-0.3,2.1-0.5,4-0.8,5.9
					c0.1,0.1,0.2,0.1,0.4,0.2c0.3-0.4,0.7-0.7,0.9-1.1c2.7-5.1,6.7-7.7,12.5-7.6c1.9,0,3.8-0.6,6-1
					C224.8,61.1,226.5,69.1,228.3,77.3z"/>
				<path class="st103" d="M145.7,53.8c-0.8,5.6-1.6,11.1-2.4,16.9c0.6-0.5,1-0.9,1.4-1.3c3.4-3.2,7.4-4.5,11.9-3.7
					c4.3,0.8,6.8,3.8,7,8.3c0,1.2-0.1,2.5-0.3,3.8c-0.4,2.9-1,5.7-1.2,8.6c-0.2,2.7-1.1,5-2.6,7.1c-3,4.1-6.9,6.9-11.9,7.6
					c-3.2,0.4-6.1-0.2-7.8-3.4c-0.2-0.3-0.4-0.5-0.8-1c-0.3,1.6-0.5,2.9-0.8,4.3c-0.1,0.5-0.5,1.2-0.9,1.3c-2.4,0.6-4.8,1-7.4,1.6
					c0.1-0.7,0.1-1.3,0.2-1.9c2.6-15,5.3-30,7.8-45c0.3-1.6,0.8-2.3,2.4-2.4C142,54.6,143.7,54.2,145.7,53.8z M154.8,83.7
					c0.1-1.6,0.3-4.2,0.3-6.9c0-2.5-1.6-4.1-3.9-4.3c-3.7-0.4-7.7,2-8.7,5.6c-0.9,3.3-1.4,6.8-1.8,10.3c-0.5,4,1.7,6,5.6,5.6
					C150.7,93.7,153.9,90,154.8,83.7z"/>
				<path class="st103" d="M28,111.5c0.3-0.5,0.5-1,0.8-1.5c4.9-11.5,9.9-23.1,14.8-34.6c0.1-0.3,0.5-0.7,0.8-0.8
					c2.7-0.6,5.5-1.2,8.4-1.8c-1.3,2.9-2.5,5.7-3.8,8.5c-3,7-6,14-9.1,21c-2.6,6-5.1,12-7.8,18.1c-0.2,0.4-0.6,1-1,1.1
					c-2.7,0.5-5.4,0.8-8.2,1.2c-1.2-4.7-2.3-9.5-3.5-14.2c-2.1-8.5-4.1-17.1-6.2-25.6c-0.6-2.6-0.6-2.7,1.9-3.3
					c1.3-0.3,2.6-0.4,3.9-0.8c1.5-0.5,2.1,0.2,2.5,1.6c0.7,3,1.6,5.9,2.2,8.9c1.2,5.5,2.3,11.1,3.3,16.7c0.3,1.8,0.4,3.7,0.6,5.5
					C27.8,111.4,27.9,111.4,28,111.5z"/>
				<path class="st103" d="M197.7,105.8c-0.2,3.4-0.2,3.4-3.1,4c-13.8,2.6-27.6,5.2-41.4,7.9c-10.5,2-21,4.2-31.5,6.3
					c-12.5,2.5-25,5-37.5,7.4c-16.8,3.3-33.7,6.5-50.5,9.7c-2.4,0.5-4.7,0.2-6.9-1.1c-1.3-0.7-2.9-0.8-4.3-1.5
					c-0.7-0.3-1.6-1.2-1.6-1.8c-0.1-2.5,0.2-5,0.3-7.5c1.8,0,2.4,1,2.8,2.1c0.6,1.7,1.3,3.4,2.8,4.6c1.9,1.5,3.8,2,6.1,1.6
					c3.8-0.8,7.5-1.4,11.3-2.2c18.4-3.6,36.7-7.1,55.1-10.7c19.8-3.9,39.6-8,59.4-11.9c11.6-2.3,23.1-4.4,34.7-6.5
					C194.8,106,196.2,105.9,197.7,105.8z"/>
				<path class="st103" d="M26.5,129.5c1.2-0.3,2.2-0.7,3.4-0.9c14.9-2.7,29.8-5.4,44.6-8.1c13.2-2.4,26.4-4.8,39.6-7.3
					c15.2-2.9,30.3-6.2,45.5-9.1c11.4-2.2,22.8-4,34.1-6c1.8-0.3,3.6-0.8,5.4-1.3c0.1,0.2,0.2,0.3,0.2,0.4c-0.2,3.9-0.2,3.8-3.9,4.4
					c-14.3,2.6-28.6,5.2-42.9,7.9c-15.4,2.9-30.8,5.9-46.1,8.9c-8,1.6-16,3.2-24,4.8c-7.4,1.4-14.8,2.8-22.1,4.3
					c-9,1.8-18.1,3.6-27.1,5.4C30.4,133.4,28.2,132.4,26.5,129.5z"/>
				<path class="st103" d="M196.4,113.6c-0.1,1.4-0.2,2.6-0.3,4c-2.1,0.3-4.3,0.6-6.5,1c-6.4,1.2-12.8,2.5-19.1,3.8
					c-8.3,1.7-16.6,3.3-24.9,5c-10.6,2.2-21.3,4.4-31.9,6.6c-7.2,1.5-14.3,2.8-21.5,4.2c-10.9,2.2-21.8,4.6-32.7,6.6
					c-8.5,1.6-17,2.9-25.5,4c-2.4,0.3-4.9-0.5-7.3-1.2c-2.6-0.7-4-2.9-5.1-5.2c-0.2-0.5-0.2-1.1-0.4-2.2c0.9,0.6,1.5,1,2,1.4
					c3,2.5,6.4,3.7,10.2,3.5c2.5-0.1,5-0.4,7.4-0.8c9.4-1.7,18.8-3.4,28.1-5.2c11.6-2.2,23.1-4.5,34.7-6.8
					c14.2-2.9,28.4-5.8,42.6-8.7c10.8-2.2,21.5-4.3,32.3-6.5c5.3-1.1,10.6-2.2,16-3.3C195,113.8,195.7,113.7,196.4,113.6z"/>
				<path class="st103" d="M120.2,105.8c0.1-1.4,0.3-2.6,0.4-3.9c-0.1-0.1-0.2-0.1-0.3-0.2c-0.5,0.5-1.1,1.1-1.6,1.6
					c-2.7,3.3-6.2,4.8-10.3,4.7c-4.2-0.1-6.6-2.6-6.9-6.9c-0.3-5.1,1.6-9.1,6.2-11.2c4.5-2.1,9.2-3.6,13.9-5.4
					c2-0.7,2.3-1.1,2.1-3.7c-0.1-1.6-1.1-2.4-2.5-2.7c-3.1-0.5-6.7,1.1-8.4,3.8c-0.2,0.3-0.6,0.8-0.9,0.8c-2.5,0.2-4.9,0.3-7.6,0.5
					c1.1-3,2.4-5.7,4.9-7.6c4.2-3.1,8.9-4.7,14.1-4.5c1.7,0.1,3.4,0.6,5,1.3c2.1,0.8,3.1,2.7,3.3,4.9c0.1,1.4,0.1,2.9-0.1,4.2
					c-1.1,7.1-2.4,14.1-3.5,21.2c-0.2,1.2-0.6,1.8-1.9,1.9C124.1,104.9,122.3,105.4,120.2,105.8z M122.4,89.8
					c-3.2,1.3-6.5,2.5-9.6,3.9c-2,0.9-3.2,2.5-3.2,4.9c0,1.3,0.6,2.2,1.9,2.5c3.6,0.8,9.2-2.7,10.1-6.4
					C121.9,93,122.1,91.5,122.4,89.8z"/>
				<path class="st103" d="M181.1,94c0.2-1.3,0.4-2.4,0.6-3.5c-0.1-0.1-0.2-0.2-0.3-0.2c-0.4,0.5-0.9,0.9-1.3,1.4
					c-2.2,2.6-5,4.3-8.3,4.8c-6.4,1-10.3-3.5-8.6-9.9c1.3-5.2,4.8-8.2,9.6-9.9c3.3-1.1,6.5-2.3,9.8-3.5c1.1-0.4,1.7-1,1.8-2.2
					c0.2-2.3-0.5-3.4-2.7-3.8c-3.5-0.6-6.2,0.8-7.8,4.1c-0.2,0.4-0.8,0.7-1.2,0.7c-2.1-0.1-4.2-0.3-6.5-0.4c0.6-2.2,1.5-4.4,3.2-5.9
					c5.5-4.8,11.9-6.3,18.8-4.4c2.9,0.8,4.3,3.2,4.4,6.3c0,1.4-0.1,2.7-0.4,4.1c-1.1,6.5-2.2,13.1-3.3,19.6
					c-0.2,1.2-0.6,1.6-1.8,1.7C185.1,93.2,183.2,93.6,181.1,94z M182.9,78.6c-2.8,1.1-5.4,2.1-8,3.2c-0.5,0.2-1,0.5-1.4,0.7
					c-1.5,0.9-2.2,2.3-2.4,4c-0.2,2.2,0.4,3.1,2.5,3.3c3,0.3,7.5-2.8,8.3-5.8C182.3,82.2,182.6,80.5,182.9,78.6z"/>
				<path class="st103" d="M188.9,124.9c-8.3,1.6-16.6,3.1-24.8,4.7c-12.9,2.6-25.8,5.3-38.7,7.9c-7.8,1.6-15.7,3.1-23.5,4.6
					c-12.4,2.5-24.9,5-37.3,7.5c-2.3,0.5-2.5,0.9-1,2.8c0.2,0.3,0.5,0.6,0.8,0.8c3.1,2.7,6,5.5,9.3,7.9c8.6,6.3,18.4,10.2,28.6,12.7
					c10.8,2.6,21.7,2.4,32.6,0.4c1.1-0.2,2.5-0.2,3.5,0.4c5.1,2.7,10.2,5.6,15.2,8.4c1.5,0.9,1.9,0.8,2.2-1c0.8-5,1.7-9.9,2.4-14.9
					c0.3-2.2,1-3.5,3-4.6c6.6-3.5,12-8.5,17.2-13.8c7.1-7.2,12.5-15.7,16.6-25.2C193,124.1,191,124.5,188.9,124.9z"/>
			</g>
			<g>
				<g>
					<path class="st157" d="M220.3,48.1c2.5-0.8,4.8-1.6,7.2-0.3c0.2,0.1,0.5-0.1,0.7-0.2c1.4-0.3,2.8-0.5,4.2-0.8
						c1.6-0.3,3.3-0.6,4.9-1c2.7-0.6,5.3-1.7,8-2c6.7-0.8,8.8,4.6,8.1,9.3c-0.2,1.1-0.5,2.3-1,3.3c-5.4,12.3-10.9,24.6-16.4,36.8
						c-1.8,4-4.4,7.5-7.8,10.1c-5.7,4.3-12.1,5.3-18.8,3.2c-1.1-0.3-2.1-1.2-3.5-2c-0.2,1.2-0.4,2.2-0.6,3.2
						c-1.2,5-1.9,10.2-3.8,14.9c-4.8,12-11.9,22.5-21.3,31.3c-4.9,4.7-10,9.1-15.7,12.8c-0.5,0.3-1.1,1-1.2,1.6
						c-0.9,4.6-1.8,9.2-2.5,13.9c-0.4,2.7-0.7,5.4-0.9,8.1c-0.1,1.4-0.6,1.9-1.9,1.4c-0.6-0.2-1.3-0.5-1.9-0.9
						c-3.8-2.2-7.7-4.4-11.4-6.7c-2.2-1.3-4.2-2.9-6.4-4.2c-0.8-0.5-1.8-0.9-2.6-0.7c-7,1.4-14,1.6-21.1,1.4
						c-10.5-0.4-20.5-2.9-30.1-7.2c-9.7-4.4-18.5-10.1-25.9-18c-0.6-0.7-1.4-1.3-1.8-2c-1-2-2.5-1.9-4.3-1.6
						c-6.4,1-12.8,2.1-19.3,2.8c-7.2,0.8-12.7-2.7-16.9-8.2c-2.4-3.2-2.5-7.1-1.8-11c0.6-3.9,1.5-7.9,2.1-11.8
						c0.2-1.2,0.2-2.5-0.1-3.7c-2.6-9.8-5.2-19.5-7.9-29.2c-0.4-1.4-0.9-2.7-1.4-4c-1.9-5.4,0.5-10.8,5.7-12.9
						c1.5-0.6,3.1-1.3,4.6-1.3c6.4,0,12.3-2.6,18.5-3.7c6.2-1.1,12.4-2.7,18.6-4c14.2-2.8,28.4-5.4,42.5-8.2
						c15.5-3.1,31-6.3,46.6-9.3c15-2.9,30.1-5.6,45.1-8.3c5.1-0.9,10.3-1.8,15.4-2.7c5.2-0.9,9.2,1.2,12.6,5
						C218.7,43.2,220.1,45.3,220.3,48.1z M195.2,123.6c-2.2,0.5-4.2,0.9-6.3,1.3c-8.3,1.6-16.6,3.1-24.8,4.7
						c-12.9,2.6-25.8,5.3-38.7,7.9c-7.8,1.6-15.7,3.1-23.5,4.6c-12.4,2.5-24.9,5-37.3,7.5c-2.3,0.5-2.5,0.9-1,2.8
						c0.2,0.3,0.5,0.6,0.8,0.8c3.1,2.7,6,5.5,9.3,7.9c8.6,6.3,18.4,10.2,28.6,12.7c10.8,2.6,21.7,2.4,32.6,0.4
						c1.1-0.2,2.5-0.2,3.5,0.4c5.1,2.7,10.2,5.6,15.2,8.4c1.5,0.9,1.9,0.8,2.2-1c0.8-5,1.7-9.9,2.4-14.9c0.3-2.2,1-3.5,3-4.6
						c6.6-3.5,12-8.5,17.2-13.8C185.6,141.5,191,133.1,195.2,123.6z M74,94.6c-0.9-8.6-6.7-13-14.9-11.7c-3.3,0.5-6.4,1.9-9.1,3.9
						c-6.2,4.8-8.3,11.7-8,19.3c0.3,7.2,5.3,11.6,12.3,11.1c8.4-0.5,15.9-6.8,18.5-15.4c0.2-0.6,0.3-1.2,0.5-1.7
						c0.6,1.2,0.8,2.3,1,3.4c1.2,5.7,5,8.5,10.6,8.6c6.9,0.1,11.4-4.1,15.6-9c0.7-0.8,0.6-1.5-0.6-2c-1.7-0.6-3.3-1.4-4.9-2.2
						c-2.6,3.6-4,4.6-7,5c-3,0.4-5.4-1.4-5.8-4.5c-0.6-4.6,0.6-8.7,3.4-12.3c3.1-3.8,8.4-3.8,11.2-0.2c1.9-1.3,3.9-2.5,5.8-3.7
						c1-0.6,1.1-1.2,0.4-2.1c-2-2.8-4.8-4.1-7.9-4.1C86.7,77,80.5,81,76.5,88.6C75.5,90.5,74.9,92.5,74,94.6z M228.3,77.3
						c-1.8-8.1-3.6-16.1-5.3-24.2c-2.2,0.4-4.1,1-6,1c-5.7-0.1-9.7,2.6-12.5,7.6c-0.2,0.4-0.6,0.8-0.9,1.1c-0.1-0.1-0.2-0.1-0.4-0.2
						c0.2-1.9,0.5-3.8,0.8-5.9c-2.3,0.4-4.3,0.9-6.3,1.1c-1,0.1-1.4,0.5-1.6,1.6c-1.8,10.4-3.6,20.7-5.5,31.1
						c-0.1,0.5-0.1,1-0.2,1.7c2.2-0.4,4.2-0.9,6.2-1.1c1.4-0.2,2-0.8,2.3-2.3c1-6,2.2-12,3.5-17.9c0.9-4.2,5.3-8.1,9.5-8.4
						c1.6-0.1,3.1,0,3.1-2.5c0.7,1.7,1.2,3.2,1.7,4.8c1.9,7,3.8,14,5.6,21c0.8,3.2-1.7,6.8-4.9,7.1c-1.7,0.1-3.4,0-5.1-0.2
						c-1-0.1-1.4,0.1-1.7,1.1c-0.3,1.7-0.8,3.3-1.3,4.9c-0.3,0.8-0.1,1.3,0.7,1.5c1.8,0.3,3.6,1,5.3,0.9c6.5-0.4,11.5-3.2,14.2-9.6
						c1.9-4.6,4.1-9,6.2-13.5c4-8.6,7.9-17.2,11.9-25.9c0.3-0.7,0.6-1.5,1-2.6c-1.5,0.3-2.6,0.5-3.8,0.7c-1.6,0.2-3.7-0.2-4.8,0.6
						c-1.2,0.9-1.5,3-2.2,4.6c-2.8,6.2-5.5,12.5-8.3,18.7C229.2,75.3,228.7,76.3,228.3,77.3z M145.7,53.8c-1.9,0.3-3.6,0.8-5.4,0.9
						c-1.6,0.1-2.2,0.8-2.4,2.4c-2.6,15-5.2,30-7.8,45c-0.1,0.6-0.1,1.1-0.2,1.9c2.6-0.5,5-1,7.4-1.6c0.4-0.1,0.7-0.8,0.9-1.3
						c0.3-1.3,0.5-2.7,0.8-4.3c0.4,0.5,0.7,0.7,0.8,1c1.8,3.2,4.7,3.9,7.8,3.4c5-0.7,8.9-3.5,11.9-7.6c1.5-2.1,2.4-4.4,2.6-7.1
						c0.2-2.9,0.8-5.7,1.2-8.6c0.2-1.2,0.3-2.5,0.3-3.8c-0.2-4.5-2.7-7.5-7-8.3c-4.5-0.8-8.5,0.5-11.9,3.7c-0.4,0.4-0.8,0.7-1.4,1.3
						C144.1,64.9,144.9,59.4,145.7,53.8z M28,111.5c-0.1-0.1-0.2-0.1-0.3-0.2c-0.2-1.8-0.2-3.7-0.6-5.5c-1-5.6-2.1-11.2-3.3-16.7
						c-0.6-3-1.5-5.9-2.2-8.9c-0.3-1.4-0.9-2-2.5-1.6c-1.3,0.4-2.6,0.5-3.9,0.8c-2.5,0.6-2.5,0.7-1.9,3.3c2.1,8.5,4.1,17.1,6.2,25.6
						c1.2,4.8,2.3,9.5,3.5,14.2c2.8-0.4,5.5-0.7,8.2-1.2c0.4-0.1,0.8-0.7,1-1.1c2.6-6,5.2-12,7.8-18.1c3-7,6-14,9.1-21
						c1.2-2.8,2.5-5.6,3.8-8.5c-2.9,0.6-5.7,1.2-8.4,1.8c-0.3,0.1-0.7,0.5-0.8,0.8c-5,11.5-9.9,23.1-14.8,34.6
						C28.6,110.5,28.3,111,28,111.5z M197.7,105.8c-1.5,0.2-3,0.2-4.4,0.5c-11.6,2.1-23.2,4.2-34.7,6.5c-19.8,3.9-39.6,8-59.4,11.9
						c-18.3,3.6-36.7,7.1-55.1,10.7c-3.8,0.7-7.5,1.4-11.3,2.2c-2.3,0.5-4.2-0.1-6.1-1.6c-1.5-1.2-2.2-2.9-2.8-4.6
						c-0.4-1.1-0.9-2-2.8-2.1c-0.1,2.5-0.4,5-0.3,7.5c0,0.6,0.9,1.5,1.6,1.8c1.4,0.6,3,0.7,4.3,1.5c2.2,1.3,4.5,1.6,6.9,1.1
						c16.8-3.2,33.7-6.4,50.5-9.7c12.5-2.4,25-4.9,37.5-7.4c10.5-2.1,21-4.3,31.5-6.3c13.8-2.7,27.6-5.3,41.4-7.9
						C197.6,109.2,197.6,109.2,197.7,105.8z M26.5,129.5c1.7,2.9,3.9,3.9,6.7,3.3c9-1.8,18.1-3.6,27.1-5.4
						c7.4-1.4,14.8-2.8,22.1-4.3c8-1.6,16-3.2,24-4.8c15.4-3,30.7-6,46.1-8.9c14.3-2.7,28.6-5.3,42.9-7.9c3.6-0.7,3.7-0.6,3.9-4.4
						c0-0.1-0.1-0.2-0.2-0.4c-1.8,0.4-3.6,0.9-5.4,1.3c-11.4,2-22.8,3.9-34.1,6c-15.2,2.9-30.3,6.1-45.5,9.1
						c-13.2,2.6-26.4,4.9-39.6,7.3c-14.9,2.7-29.8,5.4-44.6,8.1C28.7,128.8,27.7,129.2,26.5,129.5z M196.4,113.6
						c-0.8,0.1-1.5,0.2-2.1,0.3c-5.3,1.1-10.6,2.2-16,3.3c-10.8,2.2-21.5,4.3-32.3,6.5c-14.2,2.9-28.4,5.8-42.6,8.7
						c-11.5,2.3-23.1,4.6-34.7,6.8c-9.4,1.8-18.7,3.6-28.1,5.2c-2.5,0.4-5,0.7-7.4,0.8c-3.8,0.2-7.2-1-10.2-3.5
						c-0.5-0.4-1.1-0.8-2-1.4c0.2,1.1,0.1,1.7,0.4,2.2c1.2,2.3,2.5,4.6,5.1,5.2c2.4,0.6,4.9,1.5,7.3,1.2c8.5-1.1,17.1-2.4,25.5-4
						c10.9-2,21.8-4.4,32.7-6.6c7.2-1.4,14.3-2.8,21.5-4.2c10.7-2.2,21.3-4.4,31.9-6.6c8.3-1.7,16.6-3.3,24.9-5
						c6.4-1.3,12.7-2.6,19.1-3.8c2.2-0.4,4.4-0.7,6.5-1C196.2,116.3,196.3,115.1,196.4,113.6z M120.2,105.8c2.1-0.4,3.9-0.9,5.8-1.1
						c1.3-0.1,1.7-0.7,1.9-1.9c1.1-7.1,2.4-14.1,3.5-21.2c0.2-1.4,0.3-2.8,0.1-4.2c-0.2-2.2-1.2-4-3.3-4.9c-1.6-0.6-3.3-1.2-5-1.3
						c-5.2-0.2-9.9,1.4-14.1,4.5c-2.5,1.8-3.8,4.6-4.9,7.6c2.7-0.2,5.2-0.3,7.6-0.5c0.3,0,0.7-0.5,0.9-0.8c1.7-2.7,5.3-4.3,8.4-3.8
						c1.5,0.3,2.4,1,2.5,2.7c0.2,2.6-0.1,3-2.1,3.7c-4.7,1.7-9.4,3.3-13.9,5.4c-4.6,2.1-6.5,6.1-6.2,11.2c0.2,4.3,2.7,6.8,6.9,6.9
						c4.1,0.1,7.6-1.4,10.3-4.7c0.5-0.6,1-1.1,1.6-1.6c0.1,0.1,0.2,0.1,0.3,0.2C120.5,103.2,120.4,104.4,120.2,105.8z M181.1,94
						c2.2-0.4,4-0.9,5.9-1c1.2-0.1,1.6-0.6,1.8-1.7c1.1-6.5,2.2-13.1,3.3-19.6c0.2-1.3,0.4-2.7,0.4-4.1c0-3.2-1.5-5.6-4.4-6.3
						c-6.9-1.9-13.3-0.5-18.8,4.4c-1.8,1.5-2.6,3.8-3.2,5.9c2.3,0.2,4.4,0.4,6.5,0.4c0.4,0,1-0.4,1.2-0.7c1.7-3.3,4.4-4.7,7.8-4.1
						c2.2,0.4,3,1.5,2.7,3.8c-0.1,1.2-0.7,1.9-1.8,2.2c-3.3,1.2-6.5,2.3-9.8,3.5c-4.8,1.7-8.3,4.7-9.6,9.9
						c-1.7,6.5,2.2,10.9,8.6,9.9c3.4-0.5,6.1-2.2,8.3-4.8c0.4-0.5,0.9-0.9,1.3-1.4c0.1,0.1,0.2,0.2,0.3,0.2
						C181.5,91.6,181.3,92.7,181.1,94z"/>
					<path class="st157" d="M183.2,32.4c-3.8-3.4-7.5-7.1-11.6-10.1c-12.2-8.9-26.1-13.3-41-14.6c-20-1.7-38.5,3-55.4,14.4
						c-2.4,1.6-4.8,3.2-7.2,4.8c0,0.5-0.1,1-0.4,1.4c-0.7,1.3-1.5,2.5-2.2,3.8c-0.3,0.5-0.7,1-1.2,1.3l-0.3,1.7
						c0.5-0.3,1.1-0.6,1.7-0.8c0.5-0.1,1-0.2,1.5-0.3c-0.3,0.1,0.1-0.1,0.3-0.2c0.6-0.5,1.4-0.7,2.2-0.6
						c9.8-8.7,21.2-14.6,33.7-17.9c19.3-5.1,37.9-2.2,55.8,6.1c7.1,3.3,13.3,8.2,19.1,13.4c2,1.8,4.6,1.6,6.7-0.3
						C184.3,33.8,183.9,33,183.2,32.4z"/>
					<path class="st157" d="M150.1,36.6c-0.5,1.7-1.9,2.4-3.6,2.7c-5.6,1-11.2,2-16.8,3.1c-14.1,2.8-28.2,5.6-42.3,8.4
						c-6.2,1.2-12.5,2.4-18.7,3.6c-1.9,0.4-3.2-0.3-3.6-1.8c-0.4-1.6,0.5-3.1,2.5-3.5c3.1-0.7,6.3-1.3,9.4-2c10-2,20-3.9,30-5.9
						c12.8-2.5,25.5-5,38.3-7.5c0.8-0.2,1.7-0.3,2.5-0.2C149.3,33.5,150.4,35,150.1,36.6z"/>
					<path class="st157" d="M141.9,27.2c-0.3,1.4-1.3,2.1-2.7,2.4c-4.7,0.9-9.4,1.8-14.1,2.8c-12.5,2.5-25,5.1-37.6,7.7
						c-1.4,0.3-2.7,0.8-4,1.1c-1.7,0.4-2.6-0.2-3.2-1.9c-0.5-1.5-0.1-2.9,1.5-3.5c1.7-0.6,3.5-0.9,5.3-1.3
						c8.9-1.8,17.7-3.5,26.6-5.4c8.1-1.7,16.3-3.4,24.4-5.1C140.6,23.3,142.4,24.8,141.9,27.2z"/>
					<path class="st157" d="M65.4,98.5c-1.2,4.4-2.6,8.3-6.8,10.3c-4.6,2.2-8.3-0.1-8.5-5.3c-0.1-3.4,0.6-6.5,2.4-9.4
						c1.9-3,4.5-4.6,8-4.4c3.1,0.2,4.9,2.3,5,5.5C65.6,96.4,65.5,97.6,65.4,98.5z"/>
					<path class="st157" d="M154.8,83.7c-0.9,6.3-4.1,9.9-8.5,10.4c-3.9,0.4-6.1-1.7-5.6-5.6c0.4-3.5,0.9-7,1.8-10.3
						c1-3.7,5-6,8.7-5.6c2.4,0.2,3.9,1.8,3.9,4.3C155.1,79.5,154.9,82.1,154.8,83.7z"/>
					<path class="st157" d="M122.4,89.8c-0.3,1.7-0.6,3.3-0.9,4.8c-0.9,3.7-6.5,7.3-10.1,6.4c-1.3-0.3-1.9-1.1-1.9-2.5
						c0-2.3,1.2-4,3.2-4.9C116,92.3,119.2,91.1,122.4,89.8z"/>
					<path class="st157" d="M182.9,78.6c-0.4,1.9-0.6,3.7-1,5.4c-0.8,3-5.3,6.1-8.3,5.8c-2.1-0.2-2.8-1.1-2.5-3.3
						c0.2-1.7,0.9-3.1,2.4-4c0.5-0.3,0.9-0.5,1.4-0.7C177.5,80.7,180.1,79.7,182.9,78.6z"/>
					<path class="st157" d="M76.7,21.1c0,0-25.1,13-37.3,42.2l5.8,1.1c0,0,14.3-26.2,33.7-38.3L76.7,21.1z"/>
					<g>
						
							<ellipse transform="matrix(0.1102 -0.9939 0.9939 0.1102 -54.4905 255.1346)" class="st157" cx="115.3" cy="158" rx="4.3" ry="4.1"/>
						
							<ellipse transform="matrix(0.1102 -0.9939 0.9939 0.1102 -32.3281 271.5611)" class="st157" cx="135.5" cy="153.8" rx="4.3" ry="4.1"/>
						
							<ellipse transform="matrix(0.1102 -0.9939 0.9939 0.1102 -9.9196 285.8451)" class="st157" cx="154.7" cy="148.5" rx="4.3" ry="4.1"/>
					</g>
				</g>
			</g>
		</g>
	</g>
</g>
</svg>
