<svg xmlns="http://www.w3.org/2000/svg" viewBox="0 0 75 75">
  <defs>
    <style>
      .cls-1 {
        fill: #fff;
      }
    </style>
  </defs>
  <title>workBusinessIcon</title>
  <g id="Camada_1" data-name="Camada 1">
    <g>
      <path class="cls-1" d="M69.63656,47.59269a10.147,10.147,0,0,1,2.54486.4901,3.23625,3.23625,0,0,1,1.394,4.56117c-1.04464,2.08866-3.02594,3.2017-4.81674,4.46447a55.00746,55.00746,0,0,1-23.02385,9.15805,73.11519,73.11519,0,0,1-18.79456.54381,89.86883,89.86883,0,0,1-15.34472-2.86487,17.21519,17.21519,0,0,0-4.24741-.15375q-2.37183-.02324-4.74413.01578c-1.0628.016-1.60321-.40255-1.59991-1.53755Q1.03187,52.72144,1,43.17287A1.30753,1.30753,0,0,1,2.5325,41.67613c7.54464.19138,15.09306.305,22.6312.645a16.18762,16.18762,0,0,1,8.10648,2.39219c2.5403,1.63014,5.38217,1.95313,8.2846,2.054,1.8565.06456,3.71471.1084,5.57217.10888a5.5261,5.5261,0,0,1,4.35827,1.75653,1.36641,1.36641,0,0,0,1.20561.19086c3.36471-1.24759,6.70314-2.56577,10.059-3.83762a17.85094,17.85094,0,0,1,2.921-.93383c2.37034-.45343,3.81853.76,3.92907,3.1721C69.60689,47.37568,69.62977,47.52638,69.63656,47.59269ZM12.59639,52.88911h-.01468c0,2.60878.04681,5.21886-.02486,7.82568a1.3169,1.3169,0,0,0,1.17244,1.54628A81.84992,81.84992,0,0,0,30.43745,64.8612c12.0404.55425,23.54756-1.39109,34.03541-7.66842a67.47327,67.47327,0,0,0,6.59252-4.80036,1.39944,1.39944,0,0,0,.501-1.97863c-.54435-.816-1.24563-.4806-1.90161-.22161-2.824,1.115-5.59038,2.40337-8.4716,3.33982-3.9691,1.29-8.03359,2.28334-12.03782,3.46924-5.85789,1.73488-11.74789.95656-17.63921.31474a1.02475,1.02475,0,0,1-.97175-1.4314c.24611-.82657.94685-.75163,1.65951-.71152,3.90065.21955,7.80358.52954,11.70574.52963a17.55064,17.55064,0,0,0,4.92712-1.08826,2.07564,2.07564,0,0,0,1.52035-2.04315c.08433-2.4162-.91088-3.45988-3.36377-3.50454-2.52749-.046-5.057-.09168-7.58015-.23453a16.00811,16.00811,0,0,1-7.08856-2.07754,15.96768,15.96768,0,0,0-4.14345-1.65858c-4.88154-1.14827-9.87631-1.09993-14.85453-1.17858-.82616-.013-.73136.50878-.731,1.02688Q12.59822,48.91675,12.59639,52.88911Zm-9.3499,8.58165h7.14984c0-5.58909-.00467-11.04441.00654-16.49969.00125-.61124-.01594-1.10341-.83673-1.091-1.85783.02808-3.71732-.01175-5.57314.057a1.049,1.049,0,0,0-.71489.73417C3.23654,50.24109,3.24649,55.81132,3.24649,61.47076Zm49.28028-7.64193c.10643.02856.1945.08512.25516.06378,4.347-1.52936,8.70276-3.03559,13.02364-4.63585a3.233,3.233,0,0,0,1.368-1.39455,1.46607,1.46607,0,0,0-.01971-1.2798,1.3465,1.3465,0,0,0-1.11453-.34749,7.966,7.966,0,0,0-1.80716.537c-3.67969,1.4105-7.35763,2.82592-11.02074,4.2786a1.22647,1.22647,0,0,0-.65406.80145A13.1,13.1,0,0,0,52.52677,53.82883Z"/>
      <path class="cls-1" d="M37.70017,32.898a13.34356,13.34356,0,0,1-12.60609-.20679,12.67239,12.67239,0,0,1-6.163-7.51594A13.32147,13.32147,0,0,1,26.58324,8.76293c6.56514-2.539,14.53244.08451,17.64037,8.2381a13.40317,13.40317,0,0,1,12.69039.31489,12.65655,12.65655,0,0,1,5.97908,7.24037,13.2508,13.2508,0,0,1-7.08766,16.36126,12.89407,12.89407,0,0,1-10.80158.06637A13.15945,13.15945,0,0,1,37.70017,32.898ZM50.3237,39.88069A11.04546,11.04546,0,1,0,39.30843,28.293,10.99618,10.99618,0,0,0,50.3237,39.88069ZM31.59021,32.37951c1.46959-.39648,2.94155-.78446,4.40789-1.19264.87863-.24458,1.17092-.76948,1.12529-1.74237a12.77088,12.77088,0,0,1,4.47072-10.51224,1.1752,1.1752,0,0,0,.37066-1.51575,11.04365,11.04365,0,0,0-21.44437,4.4391A11.50791,11.50791,0,0,0,31.59021,32.37951Z"/>
      <path class="cls-1" d="M8.21427,47.97744c-.51831.27567-1.116.85513-1.53375.746a1.857,1.857,0,0,1-1.07835-1.34987,1.0251,1.0251,0,0,1,1.34427-1.065c.50982.15056.89313.72951,1.333,1.11689Z"/>
      <path class="cls-1" d="M54.54983,31.69184a4.00512,4.00512,0,0,1-2.2856,3.4515c-.37389.198-.56875.71841-.87429,1.06567-.29222.33212-.63888.89954-.93011.88054-.40022-.02611-1.04344-.46265-1.09874-.80213-.12506-.76775-.60309-1.00411-1.16454-1.31254A3.53782,3.53782,0,0,1,46.198,32.08446c-.06017-.68412.008-1.32378.824-1.46259.83083-.14133,1.19687.35977,1.37238,1.11962a1.89706,1.89706,0,0,0,2.46935,1.53765,1.66042,1.66042,0,0,0,1.46789-1.73864c-.01617-.981-.68006-1.46856-1.60564-1.59032-.54659-.0719-1.11545-.01736-1.64951-.13359A3.51742,3.51742,0,0,1,46.235,26.84951a3.94077,3.94077,0,0,1,1.99543-4.209c.4304-.26189.6596-.835,1.03824-1.20717.33644-.33071.738-.77452,1.13727-.80344.30245-.02191.66811.5106.96614.83291.31545.34113.511.85612.88688,1.06669a4.202,4.202,0,0,1,2.23634,2.90266c.15314.73223.051,1.402-.77568,1.60479-.8129.19936-1.19745-.26323-1.39681-1.04852a2.02648,2.02648,0,0,0-2.922-1.45859c-.80037.3922-1.30363,1.10718-.95148,1.91979a2.86517,2.86517,0,0,0,1.48752,1.23911c.63.26364,1.40937.14734,2.07489.35379A3.62746,3.62746,0,0,1,54.54983,31.69184Z"/>
      <path class="cls-1" d="M35.73107,18.4545c-.186.184-.4781.70045-.89365.83459-.74862.24166-1.13414-.294-1.32666-.98818-.38877-1.40185-1.23919-1.96365-2.49-1.655a1.70438,1.70438,0,0,0-1.47674,1.74527A1.59933,1.59933,0,0,0,31.138,19.99523a13.76712,13.76712,0,0,1,1.87776.20778,3.33547,3.33547,0,0,1,2.62721,2.878,3.75316,3.75316,0,0,1-1.90019,4.12033c-.60066.34033-1.10025.61639-1.22986,1.41238-.04807.29516-.67965.66886-1.0564.68194a1.16768,1.16768,0,0,1-.882-.74172c-.08563-.72712-.52209-.94763-1.07043-1.23269a3.83659,3.83659,0,0,1-2.1149-2.83966c-.12956-.73278-.02724-1.406.80387-1.59394.81633-.18457,1.17162.28471,1.3661,1.0764a1.94678,1.94678,0,0,0,3.19467,1.21313,2.31692,2.31692,0,0,0,.63494-1.82123c-.07005-.429-.81379-.86133-1.3449-1.07087a15.42244,15.42244,0,0,0-1.85627-.27553A3.53631,3.53631,0,0,1,27.357,18.74731,3.74281,3.74281,0,0,1,29.4275,14.9214c.54952-.31672,1.08476-.50737,1.14271-1.31745.02072-.2897.65466-.7522.99727-.74224.35368.01028.9612.4765.98731.78329.0686.806.61228,1.01326,1.15363,1.32148A3.81412,3.81412,0,0,1,35.73107,18.4545Z"/>
    </g>
  </g>
</svg>
