<svg xmlns="http://www.w3.org/2000/svg" viewBox="0 0 75 75">
  <defs>
    <style>
      .cls-1 {
        fill: #fff;
      }
    </style>
  </defs>
  <title>worldPlacesIcon</title>
  <g id="Camada_1" data-name="Camada 1">
    <g>
      <path class="cls-1" d="M21.2895,2.5a13.241,13.241,0,0,1,6.0219,2.56925,12.36333,12.36333,0,0,1,4.82542,8.97923,17.98159,17.98159,0,0,1-1.9581,9.02992,54.46727,54.46727,0,0,1-10.21043,14.504c-.37558.40195-.579.13762-.82439-.111a61.35575,61.35575,0,0,1-4.65408-5.35487,38.84167,38.84167,0,0,1-6.0964-10.452C7.24,18.52647,6.5756,15.326,7.4294,11.978A12.52067,12.52067,0,0,1,17.75261,2.58054,1.80292,1.80292,0,0,0,18.0119,2.5ZM13.23455,14.922a6.39514,6.39514,0,0,0,6.30822,6.51407,6.42959,6.42959,0,1,0,.09376-12.8588A6.347,6.347,0,0,0,13.23455,14.922Z"/>
      <path class="cls-1" d="M29.02236,38.52664c.4227.86755.90918,1.711,1.24923,2.60978a1.93074,1.93074,0,0,0,1.65779,1.36388c1.34247.22823,2.66187.58985,3.99531.875a1.678,1.678,0,0,1,.93176.51768c.24557.26824.53291.49978.76608.77753a4.98871,4.98871,0,0,0,3.04987,1.89489c.54478.08912.64153.361.38536.8634-.57835,1.13439-1.08654,2.30475-1.67189,3.43531A1.25084,1.25084,0,0,0,39.424,52.252c.38544.6155.65889,1.30164,1.04973,1.91314,1.40391,2.19653,1.79964,4.74324,2.53521,7.17173a1.76039,1.76039,0,0,1-.05125.94292c-.34686,1.38948-.60837,2.80581-1.047,4.16523a9.33007,9.33007,0,0,0-.19106,3.7713,7.82129,7.82129,0,0,0,.10554,1.08407c.16819.73205-.1699.94517-.83795,1.00893a31.52024,31.52024,0,0,1-11.2413-.73036C15.99266,67.88867,7.36721,59.0844,4.14475,45.22782A32.2214,32.2214,0,0,1,6.51337,24.2536c.08019-.17742.11566-.45465.35688-.44795.189.00526.23106.25611.30574.41677A54.22357,54.22357,0,0,0,19.21562,40.46126c.34631.33183.54761.316.88172-.01206,1.36545-1.34054,2.64517-2.75914,3.88281-4.21495.37674-.44315.59112-.41818.91825.04174.92287,1.29749,1.88365,2.568,2.825,3.8524.19474.26572.3894.53522.77068.42688.4068-.1156.25548-.47666.28335-.74873A2.29592,2.29592,0,0,1,29.02236,38.52664Z"/>
      <path class="cls-1" d="M37.77629,40.58647c.02525-1.329-.32126-1.60652-1.63483-1.28789-.48916.11865-.65888.60181-.96929.92-.31964.32768-.50794.36507-.60618-.13944-.00867-.04452-.02527-.08743-.03621-.13158-.58073-2.3433-.44308-2.576,1.92793-3.38143a.89726.89726,0,0,1,.71705.06829c.61941.28665,1.24837.55464,1.85543.86541a3.13863,3.13863,0,0,0,1.5375.18512.381.381,0,0,0,.39107-.39536c.11909-1.65627,1.33506-2.66642,2.21876-3.89025a11.4387,11.4387,0,0,1,5.33916-4.26344,3.94251,3.94251,0,0,0,.91216-.46135A4.62941,4.62941,0,0,1,53.33,28.06537c.354.0786.87412.32974,1.07724-.19432.20854-.53805.37619-1.12566-.20072-1.6288-.5132-.44758-.94426-.98873-1.45275-1.44244a11.74613,11.74613,0,0,1-3.326-4.59026.8529.8529,0,0,0-.99869-.60634A4.18834,4.18834,0,0,1,45.77284,18.98a7.9361,7.9361,0,0,0-2.85344-.56586c-.32524-.0543-.37931.248-.423.50665-.13641.80683-.29092,1.61076-.41565,2.41933-.06091.3949-.22912.55574-.64158.46958q-1.36818-.28581-2.74487-.53c-.35248-.06221-.46987-.25213-.53563-.58911-.35475-1.81765-.37553-1.87694,1.409-2.20481.90384-.16607,1.33768-.53574,1.44283-1.44917.08786-.76334.33665-1.50731.49733-2.26343.09306-.43789.30285-.57056.72161-.37173a6.7132,6.7132,0,0,0,1.00989.41292c.92584.2659,1.55748.70611,1.29571,1.82042-.071.30232.10888.50755.40593.62256.59379.22988,1.19052.45664,1.76727.725A2.2844,2.2844,0,0,0,49.0759,17.739c.345-.22288.3637-.34192.11614-.66018a45.36716,45.36716,0,0,0-3.79724-3.91871,1.59531,1.59531,0,0,1-.46473-.58c-.337-1.00812.07678-1.43535,1.10849-1.305a6.25881,6.25881,0,0,1,3.73351,1.72308,5.95287,5.95287,0,0,1,1.95043,3.03037,6.99964,6.99964,0,0,0,2.84744,4.23506c.72321.54745,1.33949,1.23435,2.04852,1.80282.82681.66289,1.17164.57861,1.71343-.3002,1.05428-1.7101,1.0562-1.68309,3.02773-1.82335a19.08824,19.08824,0,0,0,4.11773-.495c.421-.12451.56913.16483.74178.433a33.27222,33.27222,0,0,1,4.8164,12.02169A34.05091,34.05091,0,0,1,54.57234,67.88864a33.82892,33.82892,0,0,1-8.30123,3.42585c-.21215.05635-.472.22762-.64574.0689-.21562-.19693.01139-.46355.04119-.70166a3.14256,3.14256,0,0,1,1.7263-2.43017c1.39164-.8155,2.69527-1.78041,4.04617-2.66675a1.63375,1.63375,0,0,0,.7016-.87839c.3527-1.0331.75234-2.05008,1.11357-3.08039a1.32112,1.32112,0,0,1,.75192-.82266c.9752-.43845,1.93154-.91936,2.91121-1.34711a1.74392,1.74392,0,0,0,.91147-.8568q1.55666-3.03723,3.16276-6.04891c.24826-.46348.1922-.70845-.2763-.96587-1.07646-.59147-2.08422-1.32136-3.19338-1.83691a13.21709,13.21709,0,0,1-4.44036-3.95154,2.0677,2.0677,0,0,0-1.59022-.88375,11.8746,11.8746,0,0,1-2.98747-.67082,32.13988,32.13988,0,0,0-4.27933-.83507,4.6911,4.6911,0,0,0-2.17727.48055,1.21318,1.21318,0,0,1-1.57824-.47435,3.35418,3.35418,0,0,0-2.2244-1.549C37.74334,41.78711,37.75493,41.71133,37.77629,40.58647Z"/>
      <path class="cls-1" d="M52.011,7.55854a3.27858,3.27858,0,0,1-1.97151.16446,4.93646,4.93646,0,0,1-.80549-.13488c-1.81968-.66288-2.9775.53423-4.22642,1.48091a.37759.37759,0,0,0-.0934.099,3.9154,3.9154,0,0,1-3.61774,1.82564c-1.94347.0288-3.88172.55738-5.82965.02095-.52683-.14508-.79088.191-1.02075.5886-.086.14868-.16708.38672-.38022.31512-.10243-.03441-.16711-.25548-.2028-.40315a14.54627,14.54627,0,0,0-3.07159-5.94848c-.24645-.29537-.47256-.5414.16282-.66712A33.3732,33.3732,0,0,1,51.66711,7.34,3.92957,3.92957,0,0,1,52.011,7.55854ZM38.93285,9.69992c.61155-.06135,1.26539-.131,1.92006-.19168,1.01292-.0939,1.5839-.91952,2.34764-1.42245.43245-.28477,1.16315-.66358,1.14481-.9623-.03019-.49178-.81884-.56883-1.237-.89427a1.04341,1.04341,0,0,0-1.3122-.02176c-1.22845.73126-2.48519,1.41491-3.7179,2.13922-.2811.16517-.7768.27056-.74182.60549.03485.33374.5275.44207.825.64087A1.2863,1.2863,0,0,0,38.93285,9.69992Z"/>
    </g>
  </g>
</svg>
