<svg xmlns="http://www.w3.org/2000/svg" viewBox="0 0 75 75">
  <defs>
    <style>
      .cls-1 {
        fill: #fff;
      }
    </style>
  </defs>
  <title>academicLearning</title>
  <g id="Camada_1" data-name="Camada 1">
    <g>
      <path class="cls-1" d="M73.99952,38.07313q-.00024,9.59479-.00127,19.18958c-.001,2.07021-.179,2.25905-2.12995,2.25981-8.77393.00339-17.54791.01577-26.32175-.01478A2.532,2.532,0,0,0,43.27026,60.581c-.66507.90667-1.38513,1.76791-2.10543,2.62516a4.64615,4.64615,0,0,1-7.28316.06556,5.64788,5.64788,0,0,1-.77925-.97077c-1.32585-2.469-3.32882-2.88684-5.83664-2.83609-8.05648.16306-16.11758.061-24.17689.05733-1.90052-.00087-2.08657-.20753-2.08691-2.30634q-.00321-19.31835-.00085-38.6367c.00029-1.99354.20567-2.198,2.05412-2.21965,2.36595-.02773,2.25523.33824,2.25732-2.42065.00045-.601-.00739-1.2021-.001-1.803.018-1.70443.3732-2.12129,1.98795-2.12429q11.37431-.02112,22.74866.00209A7.99385,7.99385,0,0,1,36.92885,13.435c.46229.6464.74694.54651,1.16918-.037a8.03087,8.03087,0,0,1,6.89763-3.38628q11.31474-.02431,22.62957-.00224c1.72869.00273,2.05682.39978,2.06459,2.302.004.98734.01811,1.975.00064,2.962-.01326.74874.2696,1.13232.98811,1.083.1976-.01357.39685.001.59535.0024,2.72792.01922,2.7265.01921,2.72607,2.91114Q73.99856,28.67154,73.99952,38.07313ZM36.39872,55.85031c.05088-.64569.0819-.856.08194-1.06629.00254-11.933.02523-23.86606-.00986-35.79893-.012-4.06735-2.48377-6.63523-6.25378-6.64219q-10.53933-.01948-21.07869-.00261c-1.663.00061-1.67.00678-1.67029,1.778q-.00318,18.28581,0,36.57162c.00033,1.80872.0204,1.83109,1.76709,1.8323,6.3117.00443,12.62354.02861,18.93505-.00882C31.20789,52.49535,34.16949,52.59945,36.39872,55.85031Zm2.38055-.25084c2.23021-3.29339,5.501-3.08983,8.733-3.08019,6.15288.01835,12.306-.0214,18.45863.026,1.1811.0091,1.58845-.38131,1.58449-1.69167q-.05566-18.41442-.0002-36.8291c.00375-1.27069-.31474-1.721-1.54175-1.71165-7.10529.05435-14.21111.02379-21.31674.0325a7.061,7.061,0,0,0-1.53745.1399c-2.84837.64223-4.63374,3.20274-4.638,6.72229Q38.5,36.78516,38.52162,54.36278A1.58982,1.58982,0,0,0,38.77927,55.59947ZM3.02583,37.952q0,8.63139.00031,17.26277c.00033,2.11389.00194,2.11763,1.94649,2.11806,8.29995.00181,16.6.018,24.89978-.01523a3.45546,3.45546,0,0,1,3.2917,1.59958,22.62163,22.62163,0,0,0,2.11116,2.61728c1.45838,1.65961,2.97313,1.671,4.41985.03369a20.03593,20.03593,0,0,0,2.03278-2.51961A3.718,3.718,0,0,1,45.3228,57.313c8.41888.04442,16.83809.01279,25.25714.03.87458.00178,1.41218-.129,1.40947-1.30816q-.04161-18.1-.00543-36.20021c.00131-.93541-.304-1.27288-1.18068-1.30179-1.18456-.03906-1.1187.75345-1.11834,1.606q.00686,16.03893.00251,32.07785c-.00019,2.58713-.05573,2.6451-2.49871,2.64526-7.34684.0005-14.69394.03668-22.04038-.02256a5.55006,5.55006,0,0,0-5.10266,2.67982A20.77566,20.77566,0,0,1,38.544,59.51634c-.79844.95806-1.26938.96583-2.05777.035a16.46392,16.46392,0,0,1-1.43115-1.89259,5.74336,5.74336,0,0,0-5.39775-2.82459c-7.38592.07452-14.77288.029-22.15944.02706-2.01289-.00054-2.18358-.18135-2.184-2.33977q-.0034-15.91009-.00134-31.82018c0-.38646-.01462-.77323-.00451-1.15931.01865-.71188-.30939-.94372-.946-1.00023-1.0751-.09541-1.35879.41055-1.35236,1.50346C3.04476,26.014,3.02637,31.98306,3.02583,37.952Z"/>
      <path class="cls-1" d="M22.01471,34.18073c2.70012-.00115,5.40025-.00536,8.10035.00349a4.85389,4.85389,0,0,1,1.179.11221.98446.98446,0,0,1,.74168,1.03547.95292.95292,0,0,1-.741,1.02706,6.71213,6.71213,0,0,1-1.41574.14613c-5.28111.01-10.56227.018-15.84331-.00409-.8754-.00366-2.11516.19722-2.12022-1.191-.00536-1.47227,1.2664-1.10465,2.1181-1.11557C16.69365,34.16029,19.35429,34.18188,22.01471,34.18073Z"/>
      <path class="cls-1" d="M22.013,42.1938q-3.98688-.0001-7.97375-.00281a6.13093,6.13093,0,0,1-1.18491-.06969,1.0181,1.0181,0,0,1-.94776-1.10974,1.09,1.09,0,0,1,.9946-1.09148,5.80173,5.80173,0,0,1,.94891-.05334q8.15226-.00474,16.30454-.002c.23789,0,.47657.00094.71353.02056.67181.05563,1.17992.37128,1.164,1.1673-.01595.79792-.55118,1.09252-1.21275,1.12044-.71309.03011-1.42778.01952-2.14178.02014Q25.34537,42.196,22.013,42.1938Z"/>
      <path class="cls-1" d="M22.015,47.878c-2.73625,0-5.47251.00442-8.20873-.00494a5.15914,5.15914,0,0,1-1.17818-.11706.98267.98267,0,0,1-.72977-1.04048.89282.89282,0,0,1,.65251-.95687,5.37517,5.37517,0,0,1,1.40311-.20191q8.03025-.021,16.06057-.01008c.07931,0,.15893-.0034.23788.00274.78835.06124,1.7711-.01786,1.75673,1.19448-.01446,1.21911-.99345,1.12713-1.78538,1.13013C27.48751,47.88433,24.75124,47.878,22.015,47.878Z"/>
      <path class="cls-1" d="M22.00331,30.68848q-4.2835,0-8.567-.0009c-.74574-.00058-1.54213-.0328-1.51915-1.13008.02086-.99583.76667-1.05976,1.47384-1.06q8.567-.00336,17.134.00146c.75067.00075,1.54736.09817,1.501,1.1721-.04493,1.04089-.79579,1.06862-1.57552,1.05979-2.81544-.03189-5.63137-.01255-8.44712-.01255Z"/>
      <path class="cls-1" d="M21.82844,19.31855q-4.16542.001-8.33086-.00052c-.73883-.00078-1.53873-.00475-1.53217-1.11158.006-1.01.74023-1.07428,1.45125-1.07439q8.56888-.00133,17.13777.00165c.51627.0003,1.05654-.02429,1.368.55837.431.80628-.10667,1.60489-1.16827,1.61547C27.77914,19.33719,24.80371,19.31788,21.82844,19.31855Z"/>
      <path class="cls-1" d="M22.02429,25.007q-4.28464.00278-8.56927.00093c-.70009-.00055-1.453-.02376-1.48845-1.03349-.03856-1.097.73663-1.1585,1.49219-1.15866q8.50976-.00178,17.0195.00079c.63543.00052,1.37185-.05474,1.52547.84729.1803,1.05876-.46823,1.33941-1.29119,1.34021Q26.36842,25.0083,22.02429,25.007Z"/>
      <path class="cls-1" d="M52.98905,34.18131q3.99121.001,7.98244.00166a9.01723,9.01723,0,0,1,.95217.02609c.60323.06453,1.11645.33324,1.15471,1.05735a1.08382,1.08382,0,0,1-1.04573,1.16852,6.17984,6.17984,0,0,1-1.0676.07272c-5.32162.00391-10.6433.01564-15.96481-.0116-.862-.00441-2.09885.23031-2.05123-1.23914.04458-1.37553,1.23751-1.05423,2.05774-1.06419C47.66721,34.16039,50.32823,34.18063,52.98905,34.18131Z"/>
      <path class="cls-1" d="M52.99,39.86421c2.69648.00022,5.393-.0036,8.08944.00442a5.30218,5.30218,0,0,1,1.18.10191.99572.99572,0,0,1,.766,1.016.949.949,0,0,1-.71414,1.04446,5.15538,5.15538,0,0,1-1.29167.15557q-8.08942.01449-16.1789.00462a5.9195,5.9195,0,0,1-.8314-.0322,1.10736,1.10736,0,0,1-1.09949-1.24145,1.03708,1.03708,0,0,1,1.15862-1.02532c1.4269-.03252,2.85463-.02436,4.282-.02744C49.89693,39.86141,51.44345,39.864,52.99,39.86421Z"/>
      <path class="cls-1" d="M52.92027,47.87772q-3.99141.00014-7.9828-.00219a7.51878,7.51878,0,0,1-1.0692-.05567.97107.97107,0,0,1-.92392-.98882,1.04355,1.04355,0,0,1,.8832-1.17625,5.64221,5.64221,0,0,1,1.18261-.10387c5.32186-.00594,10.64378-.014,15.96558.0079.83646.00344,1.99126-.19911,2.02,1.15813.03039,1.4342-1.15473,1.13829-1.97366,1.14828C58.32179,47.89817,55.62093,47.87763,52.92027,47.87772Z"/>
      <path class="cls-1" d="M52.51621,30.69161c-2.30151.08579-5.11605-.14166-7.92543.11151a2.06054,2.06054,0,0,1-.59121-.0332c-.5752-.11763-1.11564-.33421-1.10721-1.09894a1.07613,1.07613,0,0,1,1.17909-1.15023c1.46538-.03231,2.93158-.02481,4.39746-.02568q6.12167-.00366,12.24332-.00073c.317,0,.634-.00038.95092.00348.72317.00881,1.42584.12594,1.39812,1.13246-.02489.90368-.66807,1.05493-1.35831,1.05512-1.18866.00034-2.37732.00515-3.566.00593C56.43321,30.69244,54.72945,30.69161,52.51621,30.69161Z"/>
      <path class="cls-1" d="M52.86326,25.01123q-3.86586.00073-7.73172.00019c-.31718-.00006-.6344-.00183-.95154-.00695-.66066-.01067-1.216-.222-1.23317-1.05449-.01888-.91668.58018-1.11777,1.28344-1.13095.19821-.00371.39645-.00921.59467-.00917q8.20752.00159,16.415.00594a5.86018,5.86018,0,0,1,.949.04424.98022.98022,0,0,1,.89988,1.01577.99382.99382,0,0,1-.94942,1.09641,8.22639,8.22639,0,0,1-1.0687.03709Q56.967,25.01318,52.86326,25.01123Z"/>
      <path class="cls-1" d="M52.96278,19.32664q-3.988,0-7.976-.00044c-.27774-.00008-.5555-.00461-.8332-.01-.66876-.01307-1.20421-.24842-1.20826-1.08063-.004-.828.51757-1.09191,1.193-1.09486q2.67843-.01173,5.35693-.00961,5.65462-.00251,11.30926-.00178.47616,0,.95231.00635c.71162.00974,1.29892.23534,1.26833,1.14688-.02795.83319-.59528,1.03-1.25308,1.03166q-2.26185.00568-4.52368.00589-2.14281.00136-4.28562.0002Z"/>
    </g>
  </g>
</svg>
