<svg xmlns="http://www.w3.org/2000/svg" viewBox="0 0 55 42">
  <defs>
    <style>
      .cls-1 {
        fill: #fff;
      }
    </style>
  </defs>
  <title>Layout Site Vocabrary</title>
  <g id="Camada_1" data-name="Camada 1">
    <g>
      <path class="cls-1" d="M54.26667,12.33351V34.63907c-1.15553,4.24862-4.46185,6.38006-8.93438,6.3608q-17.832-.0768-35.66457,0c-4.47251.01926-7.77884-2.11213-8.93439-6.3608V12.33351a5.09569,5.09569,0,0,1,1.62616.82357c7.59942,4.64977,15.21124,9.27971,22.77765,13.98269a3.99721,3.99721,0,0,0,4.72586.00012q9.44615-5.89737,18.98611-11.644A40.42,40.42,0,0,1,54.26667,12.33351Z"/>
      <path class="cls-1" d="M27.55258,1.00579c6.07642-.0001,12.15289-.01428,18.22925.00532,3.53705.01141,6.25724,1.45664,7.8328,4.721.73151,1.5156.6264,1.71882-.824,2.60774q-12.0183,7.36573-24.02482,14.7506a2.09245,2.09245,0,0,1-2.51032.015Q14.20889,15.66073,2.10456,8.31a1.663,1.663,0,0,1-.74489-2.56151A8.12622,8.12622,0,0,1,9.19221,1.01235C15.31225.98906,21.43245,1.00589,27.55258,1.00579Z"/>
    </g>
  </g>
</svg>
