<svg xmlns="http://www.w3.org/2000/svg" viewBox="0 0 75 75">
  <defs>
    <style>
      .cls-1 {
        fill: #fff;
      }
    </style>
  </defs>
  <title>healthBodyIcon</title>
  <g id="Camada_1" data-name="Camada 1">
    <g>
      <path class="cls-1" d="M33.79093,59.04438a10.32772,10.32772,0,0,0-1.47124-1.17671c-2.49076-1.22152-2.68019-3.2742-2.06246-5.60859.25477-.96276.61123-1.89861,1.02735-3.17042,1.73523,2.70413,3.358,5.06045,4.78847,7.52819.83167,1.4347,1.72459,1.90123,3.242,1.11819,1.25109-.6456,2.63844-1.0563,3.82027-1.80132,3.21743-2.02827,3.28323-4.79291.04786-6.74446A36.94937,36.94937,0,0,0,37.487,46.81819a7.72986,7.72986,0,0,1-1.69858-.6707c.399-.13527.83139-.44653,1.19188-.37827a23.71127,23.71127,0,0,1,9.04618,3.28764c3.64434,2.45034,3.67473,5.54189-.08337,7.85154A42.40068,42.40068,0,0,1,40.006,59.50006c-.44833.1876-.93377.28652-1.54213.46805l1.67066,2.10463-.11576.25676a22.10758,22.10758,0,0,1-2.591-1.17818,4.25248,4.25248,0,0,0-3.16347-.52434c-1.53175.27-3.10077.32844-4.79609.49153l2.72392,11.14368L31.75965,72.5a85.676,85.676,0,0,1-5.46354-8.25408c-1.2518-2.42-2.794-3.29573-5.47622-3.64845A61.22837,61.22837,0,0,1,9.73677,57.748c-2.1245-.7021-4.12874-2.11249-4.16146-4.6969-.03193-2.52183,1.94962-3.83151,3.953-4.71638,2.246-.992,4.64593-1.63746,6.98666-2.41012a2.8134,2.8134,0,0,1,.84037-.01129l.14793.38112a10.79347,10.79347,0,0,1-1.05251.59293,41.574,41.574,0,0,0-5.391,2.33032c-3.22369,1.97161-3.16674,4.76973.065,6.74978,3.71206,2.27436,7.91883,2.84126,12.44027,3.37049-6.32315-14.32051-6.08755-27.93627,3.37441-40.73046-.3444,1.80814-.77474,3.605-1.0142,5.42693a18.459,18.459,0,0,0,.80174,9.40611,4.14431,4.14431,0,0,0,3.56165,2.81752,37.77933,37.77933,0,0,0,13.23461-.84849c2.16374-.44533,4.3021-1.014,6.53782-1.3838-1.28333.8551-2.56132,1.71834-3.85095,2.56383-4.39183,2.87931-8.79509,5.74123-13.18019,8.63073-4.98566,3.28523-5.31011,9.06143-4.18072,13.51357a.9649.9649,0,0,0,.71621.56973C30.85465,59.27744,32.142,59.15688,33.79093,59.04438Z"/>
      <path class="cls-1" d="M69.42507,29.75175C65.545,39.46358,56.4969,46.53477,44.416,38.44014l9.38026-5.58548.05236-.23391-8.695,1.36638a6.57883,6.57883,0,0,1,.24748-1.11486,7.26317,7.26317,0,0,1,5.131-4.53562,13.42891,13.42891,0,0,1,10.812,1.34131C63.92523,31.17694,66.53238,31.62139,69.42507,29.75175Z"/>
      <path class="cls-1" d="M28.47136,14.99354c-2.306,1.4449-4.2287,4.169-5.86061,8.31554a5.42088,5.42088,0,0,1-1.52494-4.986A12.97586,12.97586,0,0,1,29.252,8.682c2.895-1.20956,5.11178-2.82237,5.57081-6.182,2.69189,2.98541,4.06171,10.67068,2.63151,14.95788-1.75408,5.2581-5.93416,7.776-11.13522,9.62129Z"/>
      <path class="cls-1" d="M32.13841,35.59146a5.00352,5.00352,0,1,1,5.02378-4.998A5.00625,5.00625,0,0,1,32.13841,35.59146Z"/>
    </g>
  </g>
</svg>
