<svg xmlns="http://www.w3.org/2000/svg" viewBox="0 0 75 75">
  <defs>
    <style>
      .cls-1 {
        fill: #fff;
      }
    </style>
  </defs>
  <title>natureIcon</title>
  <g id="Camada_1" data-name="Camada 1">
    <g>
      <path class="cls-1" d="M5.145,37.25406c-.09088.43118.16062.74778.27689,1.10559.0379.11662.09242.22826.12239.34671.03925.15516.1692.34705-.00113.46342-.1555.10624-.23113-.15241-.41451-.18553a6.92012,6.92012,0,0,0,.089,1.62209c.00732.18346.0505.36512.06772.54855.01241.13228.109.29029-.0144.39287-.13865.11524-.28465-.00344-.41434-.06753a1.55748,1.55748,0,0,1-.87405-1.30751,2.45057,2.45057,0,0,0-.41878-1.20215,1.67945,1.67945,0,0,1-.30591-1.0774q.19837-15.6553,13.2032-23.80665A23.5243,23.5243,0,0,1,26.5735,10.66684a25.42819,25.42819,0,0,1,20.15081,6.43531,26.03735,26.03735,0,0,1,4.99,5.96078c.21112.33908.14273.50074-.17214.67947q-.92327.524-1.81892,1.09868a.46717.46717,0,0,1-.57346-.04476,5.23273,5.23273,0,0,0-2.1806-.92093,3.079,3.079,0,0,0-1.24636.05971c-1.60422.48732-3.0138,1.23216-3.53646,3.04914a2.40657,2.40657,0,0,0-.09016.54283.59723.59723,0,0,1-.31681.51482,105.05335,105.05335,0,0,1-9.48931,5.23647c-.10138.05015-.22114.15551-.32557.04482-.0984-.1043-.01059-.23648.03058-.3455.08648-.229.18417-.454.28639-.67615a.883.883,0,0,1,.91-.5949c.63021.02058.70475-.15487.45079-.74852-.12372-.28921-.48315-.57922-.34778-.84486.11863-.2328.52211-.31011.79674-.46187q.31592-.17458.62342-.365c.07692-.04769.14889-.12024.111-.226-.04083-.11392-.144-.08529-.2317-.08134a2.18394,2.18394,0,0,0-1.10369.47279c-.1298.08658-.26051.28651-.42562.17463-.13781-.09338-.02368-.28552-.01278-.434a2.55031,2.55031,0,0,1,.35508-1.36c.14149-.19957.03091-.32735-.12772-.45778a.80892.80892,0,0,1-.32578-.92994c.0765-.229.16645-.53791.42355-.53272a.59253.59253,0,0,1,.5327.54367c-.04965.65873.41175,1.02711.66879,1.51114.043.081.12189.158.12761.241.042.60893.38257.40044.57262.16847a3.2709,3.2709,0,0,1,2.52869-1.05045c.10438-.00759.20809-.02442.31232-.03472.80619-.07964.8522-.14071.98185-.95249a1.63635,1.63635,0,0,1,.74206-1.15621c.0874-.05635.21308-.07421.19181-.21461a.28157.28157,0,0,0-.21577-.2133,2.85928,2.85928,0,0,0-.30251-.083c-.62551-.13714-.84309-.5041-.67261-1.14525.07489-.28165.16222-.55994.23172-.84292.0195-.0794.05415-.20384-.06716-.23013-.05343-.01157-.13728.049-.18516.09914a2.72305,2.72305,0,0,0-.48036,1.03034,1.52125,1.52125,0,0,0,.04766,1.49218.54007.54007,0,0,1-.024.607,5.67288,5.67288,0,0,0-.40914.82033.69414.69414,0,0,1-.67859.43292c-.29659.03106-.2823-.26272-.3862-.431-.20467-.33155-.31078-.82241-.8849-.49408-.1584.09058-.31023-.07485-.40427-.21878a1.97412,1.97412,0,0,1-.25024-1.50415.48338.48338,0,0,1,.36525-.36707,1.53893,1.53893,0,0,0,.99875-1.153c.10248-.38546.23116-.76366.33044-1.14991a2.7111,2.7111,0,0,1,2.49506-2.13887.56309.56309,0,0,1,.64064.30459.83766.83766,0,0,0,.53449.39111,3.8032,3.8032,0,0,1,1.54716.80557.35723.35723,0,0,0,.37747.06036,2.111,2.111,0,0,0,.81766-.36872A13.74934,13.74934,0,0,1,45.223,19.53363a3.262,3.262,0,0,0-1.12118-.22759c-.72845-.082-.79842-.13848-.86875-.887-.046-.48934-.08517-.98032-.09989-1.47143a.72407.72407,0,0,0-.34844-.64565,23.902,23.902,0,0,0-9.6303-3.72746c-.236-.03613-.47374-.06556-.71171-.07954a.208.208,0,0,0-.23113.17743c-.01475.113.09512.1404.17159.18274.82638.45751.87841.50815.22134,1.21858a5.29649,5.29649,0,0,0-1.0791,2.92072,2.98273,2.98273,0,0,1-.84094,1.77646.46419.46419,0,0,0-.09925.67763A.85466.85466,0,0,1,30.4675,20.545a4.02484,4.02484,0,0,1-1.87509,1.25615,4.21182,4.21182,0,0,0-2.84888,2.13734c-.139.30529-.32891.58579-.48974.881-.23569.43257-.493.47274-.82629.1017a2.208,2.208,0,0,1-.499-1.31118,5.91658,5.91658,0,0,1,.17328-2.14838,1.969,1.969,0,0,1,.55254-.76736c.15558-.17481.24324-.32788.08922-.56414a.85947.85947,0,0,1-.03025-.79954c.05378-.14276.124-.27931.19123-.41635.54607-1.11264.45583-1.551-.48548-2.34894a.98937.98937,0,0,1-.28427-1.30387c.08109-.1817.188-.35318.25213-.54053a.95421.95421,0,0,1,.88485-.726c.57732-.03525.8281-.40155.9402-.91805a4.71876,4.71876,0,0,0-3.057,2.384.77463.77463,0,0,1-1.05393.40656.7576.7576,0,0,1-.3047-1.23491c.14607-.168.321-.32775.18908-.55485-.12843-.221-.35215-.07877-.53479-.0585a7.76657,7.76657,0,0,0-1.35878.24859c.14027.24414.48346.38527.33555.73682-.11261.26767-.20771.54429-.33671.80319-.11895.23874-.27208.28432-.40845.00049-.01325-.02758-.025-.05591-.03826-.0835-.42575-.88809-.42571-.88792-1.32554-.5432-.16817.06443-.34077.11827-.50457.1927-.187.085-.30139.24488-.19772.44363a.62709.62709,0,0,1-.09529.68407c-.38649.62227-.76527,1.24989-1.16512,1.863a2.08554,2.08554,0,0,1-.95311.74261c-.19583.08621-.479.1223-.358.454.106.29055.61678.48994.79346.27132.53817-.66594,1.43807-.96544,1.66729-1.97188.14175-.62238.7662-1.03934,1.13494-1.5797.09-.13185.24832-.08081.37839-.05037.23328.05458.46612.11305.69552.18254.10648.03226.26805.02041.28173.17429.01215.13672-.119.21219-.2205.26736-1.30476.70949-1.59357,1.95564-1.699,3.33266a1.59864,1.59864,0,0,0,.91623-1.6138,2.024,2.024,0,0,1,1.51656-1.85753,1.0684,1.0684,0,0,1,1.22686,1.33534.90429.90429,0,0,0,.34309.88636,1.04376,1.04376,0,0,1,.17158,1.21225.77372.77372,0,0,0-.048.96435.80679.80679,0,0,1-.25419,1.04633c-.2443.22579-.46532.10354-.69788.05011a.78416.78416,0,0,0,.04661.48068.9757.9757,0,0,1-.68277,1.16967.33811.33811,0,0,1-.29777-.02905,1.5065,1.5065,0,0,1-.43939-2.23116,4.88323,4.88323,0,0,0,.54241-.84573,1.10117,1.10117,0,0,0-.34305-1.25873c-.24143-.10933-.41124-.09163-.54391.187a7.13931,7.13931,0,0,0-.60533,1.5336c-.07654.35063-.25167.58222-.64618.56264-.32663-.0162-.36982.15336-.2748.445.06433.1974.30552.43847.05364.61883a1.30572,1.30572,0,0,1-.98466.22868c-.21624-.03689-.17933-.19527-.11868-.35689.11021-.29369.2092-.59182.31791-.90252-.23513-.03095-.32566.116-.44457.19541a3.58792,3.58792,0,0,1-1.22238.65931.93361.93361,0,0,0-.55556.44322,2.51528,2.51528,0,0,0-.13463,2.81513,7.144,7.144,0,0,1,1.01848,1.75452c.14344-.6975.70589-.976,1.14935-1.36331.231-.20177.36441-.41942.12112-.70408a.275.275,0,0,1,.04274-.40944,2.7501,2.7501,0,0,0,.64617-1.38836c.14723-.53437.3616-.60653.81905-.31336.15216.09751.298.2062.44179.31661.58583.44989.58168.44914.26977,1.10774-.06121.12923-.20146.29293-.06232.41778.14518.13027.27941-.04213.38284-.13355.19192-.16963.36086-.36661.54066-.55088.06253-.06408.12405-.15458.22187-.13112.13254.03178.112.163.12527.26594a5.99425,5.99425,0,0,0,.213,1.49924,7.545,7.545,0,0,1,.32459,2.80053c.00633.22487.05811.38022.30648.42766.28375.0542.31508.29988.31313.53755a.47655.47655,0,0,1-.35138.52059,1.13715,1.13715,0,0,1-1.289-.19658c-.15425-.16143-.19973-.27917-.08-.47195a2.59777,2.59777,0,0,0,.327-.9371c-.59034.52393-1.21342.37982-1.87206.38855a6.61044,6.61044,0,0,0,.911,1.03368c.3865.40476.34216.68075-.15431.89664a3.746,3.746,0,0,1-1.79937.49379.57661.57661,0,0,0-.64558.51383.676.676,0,0,1-.47092.56847,1.95146,1.95146,0,0,0-1.222,1.31948A3.788,3.788,0,0,1,14.077,35.58757a5.77475,5.77475,0,0,0-.43237.4008.85713.85713,0,0,0-.16469,1.19008,2.09745,2.09745,0,0,1,.29527.91292.39823.39823,0,0,1-.18207.437c-.15578.08592-.24283-.06225-.34447-.14361a1.6531,1.6531,0,0,1-.49563-.7,2.709,2.709,0,0,0-.52145-.85318c-.33659-.36333-.69334-.37881-.96012.0279a.409.409,0,0,1-.47863.2044c-1.40937-.1892-1.64283.00309-1.95475,1.44176a2.84726,2.84726,0,0,0,.148,1.58074c.14431.41541.496.4926.87018.52112.3372.02569.62391-.02458.75615-.41019a.81658.81658,0,0,1,.60266-.558c.3546-.09591.48527.00464.42528.37005a2.28215,2.28215,0,0,1-.23561.74175c-.05933.10777-.15062.23623-.09806.34378.22668.46385-.11715.44237-.38345.52306-1.46132.44279-2.68727-.17675-3.89307-.89545a.96628.96628,0,0,1-.36546-.5604A17.0549,17.0549,0,0,0,5.145,37.25406Z"/>
      <path class="cls-1" d="M51.71407,33.71379c0,.41534-.00186.83068.00048,1.246a1.28044,1.28044,0,0,1-.62222,1.15026c-1.225.80041-1.48128.71934-2.02292-.66509-.28469-.72768-.61789-1.44021-.84086-2.18742A11.11463,11.11463,0,0,0,46.075,29.8379c-.34828-.462-.71133-.91227-1.05746-1.37591a.78042.78042,0,0,1,.21271-1.24941c.18887-.12433.38495-.2375.58084-.35008a1.246,1.246,0,0,1,1.3621.00284c.72111.43868,1.4518.86066,2.17591,1.29417.17705.106.32975.1793.52818.01812a51.234,51.234,0,0,1,5.30512-3.3649c.30645-.19226.61483-.38327.93387-.55174.26476-.13981.26266-.25736.06127-.473-1.01552-1.08746-2.01669-2.189-3.02482-3.2838q-2.63864-2.86539-5.279-5.72906c-.58841-.63928-.48835-1.00991.19126-1.51a1.99948,1.99948,0,0,1,2.60922.04916c3.636,2.40643,7.32471,4.72864,10.98557,7.09562a.72925.72925,0,0,0,.89486.00452c1.86777-1.135,3.73674-2.26908,5.629-3.36006a8.29588,8.29588,0,0,1,4.26854-1.397,2.48228,2.48228,0,0,1,.35807.022,1.25245,1.25245,0,0,1,1.04737,1.88009,5.88116,5.88116,0,0,1-1.90623,2.34627,38.67223,38.67223,0,0,1-4.4949,2.871c-.93624.57836-1.88353,1.13818-2.83379,1.69194a.59469.59469,0,0,0-.32392.63461c.0642.9504.111,1.90235.14706,2.85439.10364,2.7343.19518,5.46908.29911,8.20336.0356.93668.08915,1.87273.14328,2.80854a1.40545,1.40545,0,0,1-.74721,1.45135c-.21178.11419-.41212.25056-.62009.3725-.61076.35812-1.02184.20322-1.23687-.49591-.36975-1.20211-.72076-2.41031-1.07905-3.61612-.80833-2.7204-1.62341-5.43872-2.41671-8.16374-.11833-.40646-.24393-.42018-.5801-.221a57.633,57.633,0,0,1-5.39185,3.1264c-.90624.41142-1.29344.89846-1.10708,1.87622a2.25625,2.25625,0,0,1,.00351.41463Z"/>
      <path class="cls-1" d="M1.23718,40.608a7.72048,7.72048,0,0,0,.56074,1.60973,4.57424,4.57424,0,0,0,3.10019,2.23469,13.15485,13.15485,0,0,0,5.82875.04887,56.50281,56.50281,0,0,0,10.368-3.26241,154.97468,154.97468,0,0,0,16.04141-7.29262c1.88763-1.00369,3.74968-2.05539,5.56438-3.19257.30206-.18929.47913-.18449.69824.12415.4318.60822.88345,1.20468,1.3651,1.77174a13.3974,13.3974,0,0,1,1.65232,3.55619c.13169.29818-.12222.36955-.30469.45713-1.31489.631-2.62177,1.28117-3.95034,1.8804a153.30349,153.30349,0,0,1-22.94532,8.22,47.61371,47.61371,0,0,1-7.70639,1.49777,15.02822,15.02822,0,0,1-6.7026-.51679A5.819,5.819,0,0,1,1.7613,45.42763,6.56249,6.56249,0,0,1,1.23718,40.608Z"/>
      <path class="cls-1" d="M21.57451,61.16734c-.59392-.50038-.61145-1.2605-.97967-1.8765a5.15836,5.15836,0,0,1-.993-2.6954.93972.93972,0,0,0-.09368-.49179,11.09876,11.09876,0,0,1-1.03383-2.89183,3.19232,3.19232,0,0,0-1.66242-2.27509c-.22545-.11459-.606-.246-.563-.50727.03725-.22637.44-.17638.6813-.22956,2.86952-.63256,5.69219-1.444,8.49788-2.32249.17537-.05491.37618-.21175.54424-.027.17173.18881.10977.41343.037.64865a16.98231,16.98231,0,0,0-.43265,2.81717c-.04265.31959-.071.64123-.10419.96211a.69372.69372,0,0,1-.29466.54128,3.61377,3.61377,0,0,0-1.4753,2.95612.73563.73563,0,0,1-.37855.67371c-.1129.06326-.2618.11975-.21206.305a5.37245,5.37245,0,0,1-.33179,2.64841c-.04021.17946-.10307.35349-.14544.53252a.34.34,0,0,0,.12491.41027,1.04669,1.04669,0,0,1,.47045.93773.70643.70643,0,0,0,.63347.69492,24.20777,24.20777,0,0,0,8.37853.504A23.83657,23.83657,0,0,0,47.87923,54.1105a25.0205,25.0205,0,0,0,5.96786-13.62888,2.2013,2.2013,0,0,0-.63267-2.04039c-.15524-.14821-.20148-.28768-.02051-.46234a4.12438,4.12438,0,0,0,1.24541-3.50827.94716.94716,0,0,1,.63987-1.05892c.25506-.11925.391-.10578.4245.20918.07482.7023.19124,1.40192.22861,2.10612a27.07888,27.07888,0,0,1-2.1425,12.50831c-3.25209,7.39512-8.60832,12.52208-16.1483,14.92247-8.962,2.85312-17.209,1.12428-24.57437-4.868a25.42275,25.42275,0,0,1-5.51554-6.394c-.08855-.14256-.17053-.28942-.25857-.43232-.15207-.24686-.10117-.37183.1964-.35335q.7611.04728,1.52218.09468c.25209.01577.33668.23353.45229.40643a25.013,25.013,0,0,0,6.91661,6.95948,24.15232,24.15232,0,0,0,4.84056,2.50773c.12609.04815.2542.09111.383.1311C21.4271,61.21677,21.458,61.19751,21.57451,61.16734Z"/>
      <path class="cls-1" d="M37.7381,50.5157c.07312-.392.13973-.7855.22086-1.17579a2.63984,2.63984,0,0,0-.17518-1.75135c-.16743-.34328-.302-.70359-.47211-1.04536a1.9164,1.9164,0,0,1-.21956-1.54023c.13584-.40893-.02845-.68425-.4935-.71355-.09773-.00616-.27289-.00636-.26813-.17587.0036-.12793.15042-.13219.2426-.16833,2.69754-1.05736,5.36719-2.1837,7.98861-3.42773a.47881.47881,0,0,1,.66606.14089c.07.08616.15273.23006.28755.16813.10617-.04878.08433-.197.06461-.29311-.08331-.40638.13437-.568.45912-.71249.576-.25632,1.13711-.54894,1.69728-.84091a.56474.56474,0,0,1,.62823-.00274,3.115,3.115,0,0,0,.8746.35034c.12021.03252.30758.00568.33773.17012.03239.17669-.14373.25287-.2559.34486A8.23382,8.23382,0,0,1,47.37339,40.973c-.35724.157-.7227.29421-1.08321.44353-.14555.06029-.35529.08261-.26484.33169a.32382.32382,0,0,0,.45395.2394c.383-.13.77407-.23488,1.15744-.36387.33143-.11152.47645-.00019.48882.35685a1.23137,1.23137,0,0,1-.23388.72478c-.80353,1.27676-1.74568,2.45722-2.47719,3.78413a2.54344,2.54344,0,0,0-.37369,1.97233,1.44438,1.44438,0,0,1-.273,1.26252c-.19088.25588-.34361.5427-.54206.79156-.64518.80908-.786,1.87463-1.35763,2.73118a5.02338,5.02338,0,0,1-2.52477,2.29579c-.768.2524-1.03613.10354-1.267-.67941-.36841-1.24918-.79212-2.48122-1.19765-3.7187A1.76283,1.76283,0,0,1,37.7381,50.5157Z"/>
    </g>
  </g>
</svg>
