<svg xmlns="http://www.w3.org/2000/svg" viewBox="0 0 75 75">
  <defs>
    <style>
      .cls-1 {
        fill: #fff;
      }
    </style>
  </defs>
  <title>sensationsEmotionsIcon</title>
  <g id="Camada_1" data-name="Camada 1">
    <g>
      <path class="cls-1" d="M65.05143,30.00475c1.05108-.57751,1.37822.34844,1.81646,1.08744,1.25548,2.11684,3.31539,2.37468,5.13357.70129a5.3507,5.3507,0,0,0,1.07005-6.39094c-1.19891-2.42341-2.9525-2.48439-5.18523-1.5-.93642.41308-2.38858.68047-2.76475-.69676-.38609-1.41372,1.11149-1.35569,1.98425-1.651a3.86,3.86,0,0,0,2.54437-5.32407,4.8177,4.8177,0,0,0-5.38056-3.06508A1.46329,1.46329,0,0,0,63.1123,14.5759c-.34195,2.55295-2.16925,4.9007-1.02237,7.67182a2.30379,2.30379,0,0,1-.08527,1.22909c-.14784.686-.47626,1.32288-1.2706,1.313-.79862-.01-1.12649-.62734-1.19756-1.3503-.081-.82531-.08546-1.65846-.17649-2.48243a1.07171,1.07171,0,0,0-.85586-1.08548c-.73055-.11337-1.05328.40978-1.22383.98558a10.4145,10.4145,0,0,0-.22129,1.47493c-.1127.78393-.36283,1.60619-1.27647,1.56958-1.053-.04224-1.219-.96244-1.26289-1.835a4.68894,4.68894,0,0,1,3.66114-4.96522c.99292-.26616,2.02465-.37562,2.16159-1.6587a50.98069,50.98069,0,0,0,.473-5.44675,4.70744,4.70744,0,0,0-3.32286-4.538,5.24416,5.24416,0,0,0-5.19857.70961c-1.71111,1.26742-1.01851,2.80675-.61045,4.29124.3949,1.43649.95729,2.82621,1.416,4.24617.27822.86119-.00068,2.265-.73961,1.87443-2.214-1.17069-2.88052.77732-4.13642,1.5473-.62373.38247-1.25946.54384-1.77673-.11827a1.11261,1.11261,0,0,1,.2366-1.56468,9.056,9.056,0,0,0,2.11648-2.74161c1.00381-2.38338.50852-4.28744-1.367-5.13234a4.261,4.261,0,0,0-5.49241,2.07913,6.87394,6.87394,0,0,0-.55241,4.56952c1.50469.20667,2.56287-2.40774,3.61572-.52841.89552,1.59834-1.21061,2.1854-2.22232,3.0439-.0625.053-.14459.08227-.21254.12965-1.23467.86155-1.9867,6.99636-.96275,8.07572a1.91182,1.91182,0,0,0,.86541.417c2.86717.79214,4.88631-.43292,5.53594-3.3463.19338-.86706.1572-2.087,1.4251-1.92659,1.3219.16724,1.14584,1.394,1.15386,2.39109.0049.60861-.558,1.67169.2942,1.72727,2.63565.17214,3.34986,2.85952,5.36447,3.77543a1.14142,1.14142,0,0,1,.70662,1.61891c-.33277.70668-1.018.77132-1.71913.65367a2.42708,2.42708,0,0,1-1.851-1.15441c-1.05824-2.15994-3.04861-2.09848-4.91539-2.06469-1.02861.01861-2.03035.66627-3.07322.9022-4.15754.94089-4.16219.92228-4.15846,5.25293.00055.66505.023,1.33047.00674,1.99491-.03312,1.35556.62183,1.72457,1.89659,1.49415a6.79763,6.79763,0,0,0,5.57933-4.74374c.24934-.71084.48955-1.57582,1.44892-1.40392,1.10807.19846,1.0018,1.154.90612,1.997-.04536.39962-.15286.79213-.2489,1.27133.90825-.13639,1.93185-1.11168,2.43351.17288a1.82571,1.82571,0,0,1-1.53817,2.42194c-2.71486.26764-4.86121,2.16166-7.39623,2.49394-2.66221.34893-3.39723,1.51741-3.1045,3.90361.09042.737-.01995,1.49673.02553,2.24209.04346.71145-.30883,1.7089.54819,2.00592.92093.31918,1.45541-.56771,1.95689-1.22529a7.34144,7.34144,0,0,0,.51048-.85617c.34507-.61032.76079-1.19444,1.55592-.828.84129.38775.86314,1.15637.60249,1.92647a5.04736,5.04736,0,0,1-3.38188,3.41266c-1.53462.45153-1.80635,1.39891-1.82331,2.79291-.0475,3.902-.08013,3.83628,3.61694,4.34462,1.90889.26249,2.98642-.132,3.24389-2.27442a4.71916,4.71916,0,0,1,3.3111-4.01711,1.27814,1.27814,0,0,1,1.73988.51054c.38615.75565-.00367,1.2657-.6607,1.62492-.56643.30951-1.49789.49609-1.28633,1.27708.24633.90906,1.25695.53087,1.95352.61277a14.48525,14.48525,0,0,0,1.49471.00343c.75975.00955,1.643-.001,1.785.94567.16908,1.1271-.81717,1.286-1.6161,1.49758a6.42286,6.42286,0,0,1-2.966.02767c-.57592-.11766-1.23729-.28943-1.63189.24829-1.63838,2.23193-3.98227,2.08844-6.33339,1.9856-1.07342-.047-2.10418.19271-2.38467,1.3536a7.18184,7.18184,0,0,0,1.42113,6.55818,5.58153,5.58153,0,0,0,6.13524,1.68344,4.92647,4.92647,0,0,0,3.82789-4.42321,6.6884,6.6884,0,0,1,.21933-1.22261c.18573-.57555.51434-1.0785,1.21-1.06613a1.09782,1.09782,0,0,1,1.1271,1.11633c.08228,2.993,1.53364,1.25,2.41142.63689a4.95275,4.95275,0,0,0,2.1387-4.28266,8.75972,8.75972,0,0,0-1.85693-5.5622c-.47791-.61326-.91848-1.30439-.1452-1.96723.88384-.75749,1.5296-.09366,2.11244.52168a6.36685,6.36685,0,0,1,.72639,1.009c1.69072,2.69068,2.639,2.92538,5.28648,1.23044a6.76417,6.76417,0,0,0,3.342-6.03429c-.00263-1.824-.27651-3.529-2.03151-4.52178-1.776-1.00455-3.34863-.401-4.82754.75382a4.942,4.942,0,0,1-5.58987.73826,2.10284,2.10284,0,0,0-2.86667.59159c-.49512.5922-1.12154,1.16641-1.89225.48422-.68078-.60249-.39313-1.343-.03122-2.05122.20759-.40636.78889-.66591.53356-1.32006a2.00472,2.00472,0,0,0-.69082-.03073c-.8487.27131-1.95046.94725-2.29737-.3433-.36895-1.37246.8812-1.8115,1.974-2.01915a5.48749,5.48749,0,0,1,4.6139,1.42829c1.84676,1.52232,3.52793,1.77232,5.52816.095a5.4505,5.4505,0,0,1,6.73117-.4825,1.71732,1.71732,0,0,0,2.24858.03464,6.97233,6.97233,0,0,0,2.08685-6.77708c-.19124-.54715-.34036-1.37467-1.04342-1.12907-1.82185.6364-4.09663-.21107-5.52878,1.69752-.418.55694-.9879.9808-1.7032.47773a1.16816,1.16816,0,0,1-.21836-1.77,2.771,2.771,0,0,0,.20715-3.22767C64.25422,31.4585,64.16393,30.49227,65.05143,30.00475Z"/>
      <path class="cls-1" d="M36.43018,41.37694q0-13.09113-.00808-26.18227c-.00172-1.05879.25257-2.2323-.66683-3.063-2.918-2.63681-5.96971-5.18865-9.97384-5.84452C12.159,4.05608-.54555,16.92084,1.5498,30.57528a34.445,34.445,0,0,0,6.466,15.212c7.16942,9.85441,16.68714,17.0534,26.9,23.43086,2.097,1.30953,1.48442-.60236,1.48809-1.40992C36.4442,58.99793,36.42914,50.18738,36.43018,41.37694Zm-9.70425-32.342c-.1059.84061-.816.93329-1.58635.8187C15.58893,9.56036,8.99494,13.69341,5.803,22.91718c-.25625.74046-.5832,1.50382-1.53939,1.25712-1.11468-.28771-.91537-1.22052-.76986-2.051C4.991,13.57551,16.87048,5.55,25.15073,7.49372,25.97806,7.68789,26.86691,7.91549,26.72593,9.03489Z"/>
    </g>
  </g>
</svg>
