<svg xmlns="http://www.w3.org/2000/svg" xmlns:xlink="http://www.w3.org/1999/xlink" viewBox="0 0 1920 1080">
  <defs>
    <style>
      .cls-1 {
        fill: url(#linear-gradient);
      }

      .cls-2 {
        fill: url(#linear-gradient-2);
      }

      .cls-3 {
        isolation: isolate;
      }

      .cls-4 {
        opacity: 0.08;
        mix-blend-mode: luminosity;
      }

      .cls-5 {
        clip-path: url(#clip-path);
      }

      .cls-6 {
        fill: url(#linear-gradient-4);
      }

      .cls-7 {
        clip-path: url(#clip-path-2);
      }

      .cls-8 {
        opacity: 0.5;
        mix-blend-mode: color-dodge;
        fill: url(#linear-gradient-6);
      }

      .cls-9 {
        fill: url(#linear-gradient-7);
      }

      .cls-10 {
        fill: url(#linear-gradient-8);
      }

      .cls-11 {
        fill: url(#linear-gradient-9);
      }

      .cls-12 {
        fill: url(#linear-gradient-10);
      }

      .cls-13 {
        fill: url(#linear-gradient-11);
      }

      .cls-14 {
        mix-blend-mode: overlay;
      }

      .cls-15 {
        fill: #fff;
      }
    </style>
    <linearGradient id="linear-gradient" x1="3017.82829" y1="1041.64239" x2="3464.83227" y2="-268.36464" gradientUnits="userSpaceOnUse">
      <stop offset="0" stop-color="#0c042e"/>
      <stop offset="0.33019" stop-color="#221c3a"/>
      <stop offset="1" stop-color="#575757"/>
    </linearGradient>
    <linearGradient id="linear-gradient-2" x1="788.82829" y1="1041.64239" x2="1235.83227" y2="-268.36464" xlink:href="#linear-gradient"/>
    <clipPath id="clip-path">
      <rect class="cls-1" x="2229" width="1920" height="1080"/>
    </clipPath>
    <linearGradient id="linear-gradient-4" x1="1968.57475" y1="571.40618" x2="2428.79032" y2="1355.33239" gradientTransform="matrix(0.9736, -0.2284, 0.2284, 0.9736, 149.2136, -169.6293)" xlink:href="#linear-gradient"/>
    <clipPath id="clip-path-2">
      <rect class="cls-2" width="1920" height="1080"/>
    </clipPath>
    <linearGradient id="linear-gradient-6" x1="448.17803" y1="-141.92018" x2="918.52974" y2="659.27183" gradientUnits="userSpaceOnUse">
      <stop offset="0"/>
      <stop offset="0.22947" stop-color="#050505"/>
      <stop offset="0.49258" stop-color="#131313"/>
      <stop offset="0.77113" stop-color="#292929"/>
      <stop offset="1" stop-color="#424242"/>
    </linearGradient>
    <linearGradient id="linear-gradient-7" x1="-201.44181" y1="62.33491" x2="258.77376" y2="846.26112" gradientTransform="matrix(0.9736, -0.2284, 0.2284, 0.9736, 149.2136, -169.6293)" xlink:href="#linear-gradient"/>
    <linearGradient id="linear-gradient-8" x1="1368.22351" y1="642.21434" x2="1706.32313" y2="1069.4252" xlink:href="#linear-gradient"/>
    <linearGradient id="linear-gradient-9" x1="176.51524" y1="717.27137" x2="291.94194" y2="921.10969" gradientUnits="userSpaceOnUse">
      <stop offset="0" stop-color="#fc9512"/>
      <stop offset="0.35332" stop-color="#fd5f35"/>
      <stop offset="0.79132" stop-color="#fe225c"/>
      <stop offset="1" stop-color="#ff0a6c"/>
    </linearGradient>
    <linearGradient id="linear-gradient-10" x1="1559.94916" y1="159.70513" x2="1263.92909" y2="536.93377" xlink:href="#linear-gradient"/>
    <linearGradient id="linear-gradient-11" x1="1916.4708" y1="393.87731" x2="1739.17858" y2="117.76609" gradientTransform="matrix(0.9638, 0.0295, 0.0295, 0.9759, 13.8212, -11.8226)" xlink:href="#linear-gradient-9"/>
  </defs>
  <title>Layout Site Vocabrary</title>
  <g class="cls-3">
    <g id="Background">
      <g class="cls-4">
        <g>
          <rect class="cls-1" x="2229" width="1920" height="1080"/>
          <g class="cls-5">
            <path class="cls-6" d="M1722.02277,270.87825c56.8599-166.809,188.54072-222.21712,357.81251-252.77662,144.83816-26.148,309.7481-23.709,429.03918-101.124,118.92595-77.17763,186.247-186.08963,330.44718-209.952,193.33539-31.99276,313.07323,89.33812,338.09354,227.26875C3212.10769,125.538,3058.51836,257.79488,2877.784,283.857c-149.56062,21.56888-308.711,41.4525-416.76226,155.32913-99.52082,104.8845-133.94666,296.52037-300.77415,336.249C1971.04226,820.49138,1616.85559,579.39488,1722.02277,270.87825Z"/>
          </g>
        </g>
      </g>
      <g>
        <rect class="cls-2" width="1920" height="1080"/>
        <g class="cls-7">
          <path class="cls-8" d="M-121.28862,92.166C-19.664-65.48587,129.0999-93.19275,309.69108-87.34425c154.52307,5.00438,322.03159,43.54538,463.92123-9.30862,141.45518-52.692,238.59692-149.0235,391.87118-141.828,205.50154,9.648,295.84123,159.53813,285.2603,305.64638-14.66953,202.58175-205.881,303.85575-396.98256,290.91563-158.1399-10.70588-325.61682-25.22663-465.58687,67.26225C459.25456,510.528,374.00821,698.39887,193.51015,702.43463-11.19877,707.00963-309.24964,383.74575-121.28862,92.166Z"/>
          <g>
            <path class="cls-9" d="M-506.97723,270.87825c56.8599-166.809,188.54072-222.21712,357.81251-252.77662,144.83816-26.148,309.7481-23.709,429.03918-101.124,118.926-77.17763,186.247-186.08963,330.44718-209.952C803.657-324.96713,923.39487-203.63625,948.41518-65.70562,983.10769,125.538,829.51836,257.79488,648.784,283.857c-149.56062,21.56888-308.711,41.4525-416.76226,155.32913C132.50092,544.07063,98.07508,735.7065-68.75241,775.43513-257.95774,820.49138-612.14441,579.39488-506.97723,270.87825Z"/>
            <path class="cls-10" d="M2034.37005,802.47975c-94.08041,104.06888-270.71056,72.93038-405.98851,117.27038-155.856,51.0825-280.72821,137.35387-436.02421,205.29562-150.74379,65.94938-403.929-44.45475-229.06174-274.3935,68.86851-90.55725,134.25764-155.63325,179.9799-263.38387,50.89025-119.95163,84.17272-228.07163,213.85272-283.64138C1684.606,163.29638,2292.09969,517.37813,2034.37005,802.47975Z"/>
            <path class="cls-11" d="M432.14851,640.67288c79.93272-72.543-11.14584-144.21338-114.43282-59.23163-70.47754,57.98588-107.86748,143.91713-167.54748,207.15413C95.20205,846.84037,27.35179,821.71425-42.304,845.18963-191.10564,895.341,80.73764,1074.528,206.75979,1013.58825c88.28308-42.68962,75.34236-158.0055,96.9559-225.77212C326.775,715.51688,378.41887,689.43525,432.14851,640.67288Z"/>
            <path class="cls-12" d="M1175.55487,83.29087C1251.50031,1.1055,1391.952,27.306,1500.16246-6.9615c124.67159-39.47887,224.98544-107.24062,349.36985-160.15725C1970.27-218.484,2170.97682-128.52,2029.47323,53.32725c-55.72882,71.6175-108.44554,122.95763-145.8921,208.45725-41.68,95.181-69.218,181.0725-173.07364,224.33288C1448.24246,595.362,967.50523,308.442,1175.55487,83.29087Z"/>
            <path class="cls-13" d="M2100.25395,72.951c13.66728-61.611,72.135-90.78712,80.361-155.73487,17.91508-141.405-137.27507-217.4235-208.7241-109.4205-36.34338,54.9315-50.07343,123.46725-93.50728,173.66025-44.07918,50.93175-110.63467,58.10212-165.16595,94.82287-100.20759,67.48013-129.19138,192.2025-250.6962,243.03638C1182.30728,436.55287,1193.74031,587.8365,1398.86933,595.26c171.63693,6.21413,218.12062-203.29612,438.49846-200.292C2195.83549,399.8595,2070.52554,206.9685,2100.25395,72.951Z"/>
            <g class="cls-14">
              <path class="cls-15" d="M735.37149,1201.2675q-2.21108,0-4.43487-.03262c-97.74031-1.476-158.66585-27.23175-167.15939-70.6605-6.72287-34.40175,20.48862-77.33288,76.63056-120.88613C702.551,961.47263,797.69518,913.89113,915.552,872.0805c99.82359-35.40862,171.18564-98.95725,240.1961-160.41112,53.31734-47.4795,108.45375-96.57375,176.32616-132.35588,33.42974-17.62237,67.95282-29.98537,101.34236-41.946,52.85661-18.92587,102.7762-36.80775,148.87015-73.76212,42.6962-34.23713,75.66892-76.01438,107.552-116.415,24.21867-30.68476,49.26277-62.41313,78.47344-90.77251,72.87671-70.77037,153.24143-74.26762,200.56492-46.32937,42.11938,24.86213,72.85661,83.02013,32.80451,171.69075-18.38933,40.7115-51.89087,70.41863-84.28677,99.14438-28.98625,25.704-58.96246,52.28362-78.07713,86.69662l-.91323-.42487.91323.42487c-21.394,38.52188-32.33559,81.56963-42.91241,123.20062-16.41436,64.58851-33.38543,131.382-90.0603,180.61163-63.35713,55.03425-171.19385,82.2105-329.67918,83.08237-150.79344.831-258.63385,69.25051-362.92882,135.41738C923.52862,1147.16363,838.2441,1201.2675,735.37149,1201.2675ZM1905.35549,195.678c-41.314,0-89.8757,17.67338-135.55282,62.02163-29.11836,28.27125-54.11857,59.95237-78.29744,90.5895-31.95487,40.48462-64.99569,82.34625-107.8642,116.72249-46.36636,37.17413-96.45047,55.11113-149.47529,74.10263-33.31733,11.93475-67.7723,24.27263-101.06584,41.82525-67.65211,35.66138-122.69211,84.675-175.91754,132.07388C1088.02379,774.59887,1016.50954,838.28325,916.297,873.831c-117.648,41.73338-212.592,89.20537-274.56329,137.28525-55.561,43.10663-82.528,85.4115-75.93764,119.1285,8.30564,42.462,68.50585,67.6575,165.17252,69.11513,1.46215.02175,2.94071.03262,4.39507.03262,102.25149.0075,187.25949-53.9355,277.20328-111.00187,104.55139-66.32813,212.66052-134.916,364.08288-135.75075,157.94051-.86813,265.3243-27.876,328.281-82.566,56.23016-48.84525,73.129-115.35638,89.47528-179.67788,10.60472-41.7405,21.57457-84.8985,43.08472-123.6255,19.26687-34.69087,49.367-61.38037,78.47385-87.19087,32.24738-28.59375,65.59261-58.16176,83.81784-98.51813,39.57539-87.6015,9.40718-144.9465-32.01928-169.39837C1950.69621,201.585,1929.23364,195.678,1905.35549,195.678Z"/>
            </g>
            <g class="cls-14">
              <path class="cls-15" d="M16.57764,780.45488q-4.02646,0-8.00082-.12113c-54.327-1.68075-99.01867-21.19613-122.6162-53.54738-34.58749-47.41312-22.81641-125.23312,81.45025-192.20587l.58913.76538-.58913-.76538C2.07836,512.30775,35.88062,492.92775,68.56862,474.189c108.85825-62.40975,202.86851-116.31225,269.61969-241.68112,22.09107-41.499,39.64307-92.08388,58.22482-145.64213C446.14892-56.4765,502.519-218.94975,669.975-269.21925c162.50421-48.78675,378.49354,55.91287,510.40452,173.8365C1281.50523-4.9725,1329.52615,86.15175,1308.82913,148.371c-13.34523,40.12575-53.90605,66.222-120.54892,77.55975-64.37908,10.94963-125.30462,6.58463-184.22688,2.36212-102.47589-7.34249-199.26646-14.28224-298.52964,60.57113-71.442,53.86988-136.67036,120.11362-199.75138,184.17488-87.96472,89.33362-178.92636,181.71037-291.25,246.59549C145.488,759.51825,77.24677,780.45488,16.57764,780.45488ZM758.23631-279.62325c-30.33272,0-59.75959,3.81938-87.6201,12.18375-166.45867,49.97288-222.66052,211.959-272.2478,354.873-18.60185,53.62425-36.178,104.27475-58.33723,145.89488C273.024,359.18025,178.78113,413.21475,69.65867,475.77825,36.99405,494.50612,3.216,513.8715-31.41128,536.11125c-103.13313,66.25125-114.9559,142.98-80.92144,189.63525,46.02585,63.0945,172.70031,80.7165,325.75713-7.69425C325.51179,653.3025,416.377,561.02475,504.24985,471.783c63.129-64.11262,128.40943-130.40775,199.968-184.36162,99.90359-75.34088,197.09948-68.38275,299.99589-60.99638,58.79016,4.21162,119.57949,8.57325,183.68985-2.34,65.83344-11.19487,105.85764-36.85537,118.96656-76.25962,20.16-60.61913-28.85825-153.29588-127.92492-241.86788C1070.11938-191.32987,903.94954-279.62325,758.23631-279.62325Z"/>
            </g>
          </g>
        </g>
      </g>
    </g>
  </g>
</svg>
